<?xml version="1.0" encoding="UTF-8"?><svg id="Layer_2" xmlns="http://www.w3.org/2000/svg" viewBox="0 0 7534.22 456.9"><defs><style>.cls-1{fill:#003c57;}.cls-2{fill:#e8eff4;}.cls-3{fill:#a6bfd5;}</style></defs><g id="Layer_1-2"><path class="cls-2" d="M872,53.74c-.1-5.25-4.38-9.48-9.65-9.48-1.78,0-3.44,.49-4.87,1.33-3.25-8.83-11.74-15.13-21.71-15.13-1.99,0-3.93,.25-5.77,.73-5.56-9.95-16.2-16.69-28.41-16.69-15.36,0-28.23,10.66-31.64,24.98-2.16-.92-4.53-1.42-7.02-1.42-6.78,0-12.68,3.76-15.73,9.3-1.7-1.49-3.92-2.4-6.36-2.4-5.04,0-9.18,3.86-9.62,8.79h140.77Z"/><path class="cls-3" d="M416.96,54.14c-.12-6.63-5.53-11.98-12.19-11.98-2.25,0-4.35,.62-6.15,1.68-4.11-11.16-14.83-19.11-27.42-19.11-2.52,0-4.96,.32-7.29,.92-7.02-12.57-20.46-21.08-35.88-21.08-19.4,0-35.66,13.46-39.96,31.55-2.72-1.16-5.72-1.8-8.86-1.8-8.56,0-16.01,4.75-19.87,11.75-2.15-1.88-4.95-3.03-8.03-3.03-6.37,0-11.59,4.88-12.15,11.1h177.8Z"/><g><path class="cls-1" d="M1336.26,158.72s10.74,1.99,12.1,7.4c.03,.12,.29,.23,.34,.01,1.17-4.78,11.15-8.06,11.15-8.06,0,0-8.36,4.82-11.09,10.64-.05,.12-.46,.11-.53,0-3.81-6.43-11.97-9.99-11.97-9.99Z"/><path class="cls-1" d="M1351.53,190.47s16.43-1.68,18.29,5.73c.04,.16,.39,.32,.47,.02,1.6-6.56,17.11-5.81,17.11-5.81,0,0-13.29,1.37-17.03,9.35-.07,.16-.64,.15-.73,0-5.22-8.81-18.12-9.29-18.12-9.29Z"/><path class="cls-1" d="M1310.09,176.84s16.64-11.89,18.94-2.75c.05,.2,.49,.39,.58,.02,1.97-8.09,16.95,1.97,16.95,1.97,0,0-14.04-7.35-16.85,2.39-.06,.21-.78,.19-.89,0-6.43-10.86-18.72-1.63-18.72-1.63Z"/></g><path class="cls-3" d="M1150.87,99.1c-.06-3.17-2.64-5.73-5.83-5.73-1.07,0-2.08,.29-2.94,.8-1.96-5.33-7.09-9.14-13.11-9.14-1.2,0-2.37,.15-3.48,.44-3.36-6.01-9.78-10.08-17.15-10.08-9.28,0-17.05,6.43-19.1,15.08-1.3-.55-2.73-.86-4.24-.86-4.09,0-7.65,2.27-9.5,5.62-1.03-.9-2.37-1.45-3.84-1.45-3.05,0-5.54,2.33-5.81,5.31h85Z"/><path class="cls-3" d="M911.7,154.9c-.05-2.72-2.27-4.91-5-4.91-.92,0-1.78,.25-2.52,.69-1.68-4.58-6.08-7.84-11.25-7.84-1.03,0-2.03,.13-2.99,.38-2.88-5.16-8.39-8.64-14.72-8.64-7.96,0-14.63,5.52-16.39,12.94-1.12-.47-2.34-.74-3.63-.74-3.51,0-6.57,1.95-8.15,4.82-.88-.77-2.03-1.24-3.29-1.24-2.61,0-4.75,2-4.98,4.55h72.93Z"/><g><path class="cls-1" d="M355.27,88.05s10.74,1.99,12.1,7.4c.03,.12,.29,.23,.34,.01,1.17-4.78,11.15-8.06,11.15-8.06,0,0-8.36,4.82-11.09,10.64-.05,.12-.46,.11-.53,0-3.81-6.43-11.97-9.99-11.97-9.99Z"/><path class="cls-1" d="M372.73,119.89s16.64-11.89,18.94-2.75c.05,.2,.49,.39,.58,.02,1.97-8.09,16.95,1.97,16.95,1.97,0,0-14.04-7.35-16.85,2.39-.06,.21-.78,.19-.89,0-6.43-10.86-18.72-1.63-18.72-1.63Z"/></g><path class="cls-2" d="M545.4,131.43c-.06-3.17-2.64-5.73-5.83-5.73-1.07,0-2.08,.29-2.94,.8-1.96-5.33-7.09-9.14-13.11-9.14-1.2,0-2.37,.15-3.48,.44-3.36-6.01-9.78-10.08-17.15-10.08-9.28,0-17.05,6.43-19.1,15.08-1.3-.55-2.73-.86-4.24-.86-4.09,0-7.65,2.27-9.5,5.62-1.03-.9-2.37-1.45-3.84-1.45-3.05,0-5.54,2.33-5.81,5.31h85Z"/><path class="cls-2" d="M1853.99,49.57c-.12-6.63-5.53-11.98-12.19-11.98-2.25,0-4.35,.62-6.15,1.68-4.11-11.16-14.83-19.11-27.42-19.11-2.52,0-4.96,.32-7.29,.92-7.02-12.57-20.46-21.08-35.88-21.08-19.4,0-35.66,13.46-39.96,31.55-2.72-1.16-5.72-1.8-8.86-1.8-8.56,0-16.01,4.75-19.87,11.75-2.15-1.88-4.95-3.03-8.03-3.03-6.37,0-11.59,4.88-12.15,11.1h177.8Z"/><path class="cls-3" d="M2829.25,66.31c-.1-5.25-4.38-9.48-9.65-9.48-1.78,0-3.44,.49-4.87,1.33-3.25-8.83-11.74-15.13-21.71-15.13-1.99,0-3.93,.25-5.77,.73-5.56-9.95-16.2-16.69-28.41-16.69-15.36,0-28.23,10.66-31.64,24.98-2.16-.92-4.53-1.42-7.02-1.42-6.78,0-12.68,3.76-15.73,9.3-1.7-1.49-3.92-2.4-6.36-2.4-5.04,0-9.18,3.86-9.62,8.79h140.77Z"/><path class="cls-3" d="M2267.38,73.08c-.12-6.63-5.53-11.98-12.19-11.98-2.25,0-4.35,.62-6.15,1.68-4.11-11.16-14.83-19.11-27.42-19.11-2.52,0-4.96,.32-7.29,.92-7.02-12.57-20.46-21.08-35.88-21.08-19.4,0-35.66,13.46-39.96,31.55-2.72-1.16-5.72-1.8-8.86-1.8-8.56,0-16.01,4.75-19.87,11.75-2.15-1.88-4.95-3.03-8.03-3.03-6.37,0-11.59,4.88-12.15,11.1h177.8Z"/><path class="cls-3" d="M3194.83,69.86c-.06-3.17-2.64-5.73-5.83-5.73-1.07,0-2.08,.29-2.94,.8-1.96-5.33-7.09-9.14-13.11-9.14-1.2,0-2.37,.15-3.48,.44-3.36-6.01-9.78-10.08-17.15-10.08-9.28,0-17.05,6.43-19.1,15.08-1.3-.55-2.73-.86-4.24-.86-4.09,0-7.65,2.27-9.5,5.62-1.03-.9-2.37-1.45-3.84-1.45-3.05,0-5.54,2.33-5.81,5.31h85Z"/><path class="cls-2" d="M2698.63,128.76c-.05-2.72-2.27-4.91-5-4.91-.92,0-1.78,.25-2.52,.69-1.68-4.58-6.08-7.84-11.25-7.84-1.03,0-2.03,.13-2.99,.38-2.88-5.16-8.39-8.64-14.72-8.64-7.96,0-14.63,5.52-16.39,12.94-1.12-.47-2.34-.74-3.63-.74-3.51,0-6.57,1.95-8.15,4.82-.88-.77-2.03-1.24-3.29-1.24-2.61,0-4.75,2-4.98,4.55h72.93Z"/><path class="cls-2" d="M2318.11,119.79c-.06-3.17-2.64-5.73-5.83-5.73-1.07,0-2.08,.29-2.94,.8-1.96-5.33-7.09-9.14-13.11-9.14-1.2,0-2.37,.15-3.48,.44-3.36-6.01-9.78-10.08-17.15-10.08-9.28,0-17.05,6.43-19.1,15.08-1.3-.55-2.73-.86-4.24-.86-4.09,0-7.65,2.27-9.5,5.62-1.03-.9-2.37-1.45-3.84-1.45-3.05,0-5.54,2.33-5.81,5.31h85Z"/><path class="cls-3" d="M5995.82,137.22c-.08-4.46-3.72-8.06-8.2-8.06-1.51,0-2.92,.42-4.14,1.13-2.76-7.51-9.98-12.86-18.45-12.86-1.69,0-3.34,.21-4.9,.62-4.73-8.46-13.76-14.18-24.14-14.18-13.06,0-23.99,9.06-26.89,21.23-1.83-.78-3.85-1.21-5.96-1.21-5.76,0-10.77,3.19-13.37,7.91-1.44-1.27-3.33-2.04-5.4-2.04-4.29,0-7.8,3.28-8.17,7.47h119.63Z"/><path class="cls-3" d="M7350.7,100.46c-.12-6.63-5.53-11.98-12.19-11.98-2.25,0-4.35,.62-6.15,1.68-4.11-11.16-14.83-19.11-27.42-19.11-2.52,0-4.96,.32-7.29,.92-7.02-12.57-20.46-21.08-35.88-21.08-19.4,0-35.66,13.46-39.96,31.55-2.72-1.16-5.72-1.8-8.86-1.8-8.56,0-16.01,4.75-19.87,11.75-2.15-1.88-4.95-3.03-8.03-3.03-6.37,0-11.59,4.88-12.15,11.1h177.8Z"/><g><path class="cls-1" d="M5594.31,134.38s10.74,1.99,12.1,7.4c.03,.12,.29,.23,.34,.01,1.17-4.78,11.15-8.06,11.15-8.06,0,0-8.36,4.82-11.09,10.64-.05,.12-.46,.11-.53,0-3.81-6.43-11.97-9.99-11.97-9.99Z"/><path class="cls-1" d="M5611.76,166.21s16.64-11.89,18.94-2.75c.05,.2,.49,.39,.58,.02,1.97-8.09,16.95,1.97,16.95,1.97,0,0-14.04-7.35-16.85,2.39-.06,.21-.78,.19-.89,0-6.43-10.86-18.72-1.63-18.72-1.63Z"/></g><path class="cls-2" d="M6154.89,227.69c-.06-3.17-2.64-5.73-5.83-5.73-1.07,0-2.08,.29-2.94,.8-1.96-5.33-7.09-9.14-13.11-9.14-1.2,0-2.37,.15-3.48,.44-3.36-6.01-9.78-10.08-17.15-10.08-9.28,0-17.05,6.43-19.1,15.08-1.3-.55-2.73-.86-4.24-.86-4.09,0-7.65,2.27-9.5,5.62-1.03-.9-2.37-1.45-3.84-1.45-3.05,0-5.54,2.33-5.81,5.31h85Z"/><path class="cls-2" d="M6392.95,96.38c-.08-4.56-3.8-8.23-8.38-8.23-1.54,0-2.99,.42-4.23,1.15-2.82-7.67-10.2-13.14-18.85-13.14-1.73,0-3.41,.22-5.01,.63-4.83-8.64-14.06-14.49-24.66-14.49-13.34,0-24.51,9.25-27.47,21.69-1.87-.8-3.93-1.24-6.09-1.24-5.88,0-11.01,3.26-13.65,8.08-1.48-1.29-3.4-2.08-5.52-2.08-4.38,0-7.97,3.35-8.35,7.63h122.21Z"/><path class="cls-2" d="M5636.8,77.45c.12-6.63,5.53-11.98,12.19-11.98,2.25,0,4.35,.62,6.15,1.68,4.11-11.16,14.83-19.11,27.42-19.11,2.52,0,4.96,.32,7.29,.92,7.02-12.57,20.46-21.08,35.88-21.08,19.4,0,35.66,13.46,39.96,31.55,2.72-1.16,5.72-1.8,8.86-1.8,8.56,0,16.01,4.75,19.87,11.75,2.15-1.88,4.95-3.03,8.03-3.03,6.37,0,11.59,4.88,12.15,11.1h-177.8Z"/><path class="cls-3" d="M5209.48,71.93c.09-5.11,4.26-9.22,9.39-9.22,1.73,0,3.35,.47,4.74,1.29,3.16-8.59,11.42-14.71,21.11-14.71,1.94,0,3.82,.24,5.61,.71,5.41-9.68,15.75-16.22,27.62-16.22,14.94,0,27.45,10.36,30.76,24.29,2.1-.89,4.4-1.38,6.82-1.38,6.59,0,12.33,3.65,15.29,9.05,1.65-1.45,3.81-2.33,6.18-2.33,4.9,0,8.92,3.76,9.35,8.55h-136.87Z"/><path class="cls-2" d="M4820.04,81.15c.05-2.72,2.27-4.91,5-4.91,.92,0,1.78,.25,2.52,.69,1.68-4.58,6.08-7.84,11.25-7.84,1.03,0,2.03,.13,2.99,.38,2.88-5.16,8.39-8.64,14.72-8.64,7.96,0,14.63,5.52,16.39,12.94,1.12-.47,2.34-.74,3.63-.74,3.51,0,6.57,1.95,8.15,4.82,.88-.77,2.03-1.24,3.29-1.24,2.61,0,4.75,2,4.98,4.55h-72.93Z"/><path class="cls-2" d="M4005.52,30.02c.06-3.17,2.64-5.73,5.83-5.73,1.07,0,2.08,.29,2.94,.8,1.96-5.33,7.09-9.14,13.11-9.14,1.2,0,2.37,.15,3.48,.44,3.36-6.01,9.78-10.08,17.15-10.08,9.28,0,17.05,6.43,19.1,15.08,1.3-.55,2.73-.86,4.24-.86,4.09,0,7.65,2.27,9.5,5.62,1.03-.9,2.37-1.45,3.84-1.45,3.05,0,5.54,2.33,5.81,5.31h-85Z"/><path class="cls-2" d="M5078.79,26.94c.05-2.72,2.27-4.91,5-4.91,.92,0,1.78,.25,2.52,.69,1.68-4.58,6.08-7.84,11.25-7.84,1.03,0,2.03,.13,2.99,.38,2.88-5.16,8.39-8.64,14.72-8.64,7.96,0,14.63,5.52,16.39,12.94,1.12-.47,2.34-.74,3.63-.74,3.51,0,6.57,1.95,8.15,4.82,.88-.77,2.03-1.24,3.29-1.24,2.61,0,4.75,2,4.98,4.55h-72.93Z"/><g><path class="cls-1" d="M6330.71,174.69s10.74,1.99,12.1,7.4c.03,.12,.29,.23,.34,.01,1.17-4.78,11.15-8.06,11.15-8.06,0,0-8.36,4.82-11.09,10.64-.05,.12-.46,.11-.53,0-3.81-6.43-11.97-9.99-11.97-9.99Z"/><path class="cls-1" d="M6345.97,206.43s16.43-1.68,18.29,5.73c.04,.16,.39,.32,.47,.02,1.6-6.56,17.11-5.81,17.11-5.81,0,0-13.29,1.37-17.03,9.35-.07,.16-.64,.15-.73,0-5.22-8.81-18.12-9.29-18.12-9.29Z"/><path class="cls-1" d="M6304.54,192.81s16.64-11.89,18.94-2.75c.05,.2,.49,.39,.58,.02,1.97-8.09,16.95,1.97,16.95,1.97,0,0-14.04-7.35-16.85,2.39-.06,.21-.78,.19-.89,0-6.43-10.86-18.72-1.63-18.72-1.63Z"/></g><rect class="cls-2" y="408.72" width="7534.22" height="48.18"/></g></svg>