<?xml version="1.0" encoding="UTF-8"?><svg id="Layer_2" xmlns="http://www.w3.org/2000/svg" viewBox="0 0 7537.53 503.21"><defs><style>.cls-1{fill:#e8eff4;}.cls-2{fill:#fff;}.cls-3{fill:#a6bfd5;}.cls-4{fill:#6390b5;}</style></defs><g id="Layer_1-2"><rect class="cls-1" x="3502.45" y="208.02" width="668.9" height="253.93"/><path class="cls-1" d="M7014.08,374.88c-9.85-3.25-18.91-16.45-23.72-38.86-7.08-32.97-4.62-66.41,.7-99.39,4.32-26.78,9.97-52.29,17.58-75.88,5.99-18.57,11.36-20.48,20.07-7.41,1.71,2.57,3.59,4.83,5.07,7.89,11.15,23.06,19.61,49.38,22.99,81.62,3.85,36.72-1.29,82.16-13.7,110.16-8.04,18.15-18.93,25.19-28.98,21.87Z"/><path class="cls-1" d="M5548.5,314.92c-9.14-2.4-17.54-12.15-22-28.7-6.57-24.35-4.29-49.05,.65-73.42,4.01-19.78,9.25-38.63,16.31-56.05,5.56-13.71,10.54-15.13,18.61-5.47,1.59,1.9,3.33,3.57,4.7,5.83,10.34,17.04,18.19,36.47,21.32,60.29,3.57,27.13-1.2,60.68-12.71,81.37-7.46,13.41-17.56,18.61-26.88,16.15Z"/><path class="cls-1" d="M4941.25,395.11c-8.32-3.25-15.97-16.45-20.03-38.86-5.98-32.97-3.9-66.41,.59-99.39,3.65-26.78,8.42-52.29,14.85-75.88,5.06-18.57,9.59-20.48,16.95-7.41,1.45,2.57,3.03,4.83,4.28,7.89,9.42,23.06,16.56,49.38,19.41,81.62,3.25,36.72-1.09,82.16-11.57,110.16-6.79,18.15-15.98,25.19-24.48,21.87Z"/><path class="cls-1" d="M4801.47,338.72c-9.14-2.4-17.54-12.15-22-28.7-6.57-24.35-4.29-49.05,.65-73.42,4.01-19.78,9.25-38.63,16.31-56.05,5.56-13.71,10.54-15.13,18.61-5.47,1.59,1.9,3.33,3.57,4.7,5.83,10.34,17.04,18.19,36.47,21.32,60.29,3.57,27.13-1.2,60.68-12.71,81.37-7.46,13.41-17.56,18.61-26.88,16.15Z"/><path class="cls-1" d="M4765.97,243.62c-4.72-1.36-9.06-6.87-11.36-16.23-3.39-13.77-2.21-27.73,.33-41.5,2.07-11.18,4.78-21.83,8.42-31.68,2.87-7.75,5.44-8.55,9.61-3.09,.82,1.07,1.72,2.02,2.43,3.29,5.34,9.63,9.39,20.62,11.01,34.08,1.84,15.33-.62,34.3-6.56,46-3.85,7.58-9.06,10.52-13.88,9.13Z"/><path class="cls-1" d="M4914.78,291.22c6.1-1.57,11.7-7.92,14.68-18.71,4.38-15.88,2.86-31.98-.43-47.86-2.67-12.89-6.17-25.18-10.88-36.53-3.71-8.94-7.03-9.86-12.42-3.57-1.06,1.24-2.22,2.33-3.14,3.8-6.9,11.1-12.14,23.78-14.23,39.3-2.38,17.68,.8,39.56,8.48,53.04,4.98,8.74,11.71,12.13,17.94,10.53Z"/><path class="cls-1" d="M4758.67,313.76c-9.74-1.36-18.7-6.87-23.45-16.23-7-13.77-4.57-27.73,.69-41.5,4.27-11.18,9.86-21.83,17.38-31.68,5.92-7.75,11.23-8.55,19.84-3.09,1.69,1.07,3.55,2.02,5.01,3.29,11.03,9.63,19.39,20.62,22.73,34.08,3.8,15.33-1.28,34.3-13.54,46-7.95,7.58-18.72,10.52-28.66,9.13Z"/><path class="cls-1" d="M4747.55,267.07c4.09-.96,7.85-4.84,9.84-11.44,2.94-9.7,1.92-19.54-.29-29.25-1.79-7.88-4.14-15.39-7.3-22.33-2.49-5.46-4.71-6.03-8.33-2.18-.71,.76-1.49,1.42-2.1,2.32-4.63,6.79-8.14,14.53-9.54,24.02-1.6,10.81,.54,24.18,5.68,32.42,3.34,5.34,7.86,7.41,12.03,6.44Z"/><path class="cls-1" d="M5462.54,367.15c9.85-3.25,18.91-16.45,23.72-38.86,7.08-32.97,4.62-66.41-.7-99.39-4.32-26.78-9.97-52.29-17.58-75.88-5.99-18.57-11.36-20.48-20.07-7.41-1.71,2.57-3.59,4.83-5.07,7.89-11.15,23.06-19.61,49.38-22.99,81.62-3.85,36.72,1.29,82.16,13.7,110.16,8.04,18.15,18.93,25.19,28.98,21.87Z"/><path class="cls-1" d="M5393.61,350.3c-9.14-2.4-17.54-12.15-22-28.7-6.57-24.35-4.29-49.05,.65-73.42,4.01-19.78,9.25-38.63,16.31-56.05,5.56-13.71,10.54-15.13,18.61-5.47,1.59,1.9,3.33,3.57,4.7,5.83,10.34,17.04,18.19,36.47,21.32,60.29,3.57,27.13-1.2,60.68-12.71,81.37-7.46,13.41-17.56,18.61-26.88,16.15Z"/><path class="cls-1" d="M5356.95,273.78c-4.72-1.36-9.06-6.87-11.36-16.23-3.39-13.77-2.21-27.73,.33-41.5,2.07-11.18,4.78-21.83,8.42-31.68,2.87-7.75,5.44-8.55,9.61-3.09,.82,1.07,1.72,2.02,2.43,3.29,5.34,9.63,9.39,20.62,11.01,34.08,1.84,15.33-.62,34.3-6.56,46-3.85,7.58-9.06,10.52-13.88,9.13Z"/><path class="cls-1" d="M5235.65,383.53c-8.32-3.25-15.97-16.45-20.03-38.86-5.98-32.97-3.9-66.41,.59-99.39,3.65-26.78,8.42-52.29,14.85-75.88,5.06-18.57,9.59-20.48,16.95-7.41,1.45,2.57,3.03,4.83,4.28,7.89,9.42,23.06,16.56,49.38,19.41,81.62,3.25,36.72-1.09,82.16-11.57,110.16-6.79,18.15-15.98,25.19-24.48,21.87Z"/><path class="cls-1" d="M5302.4,365.52c9.14-2.4,17.54-12.15,22-28.7,6.57-24.35,4.29-49.05-.65-73.42-4.01-19.78-9.25-38.63-16.31-56.05-5.56-13.71-10.54-15.13-18.61-5.47-1.59,1.9-3.33,3.57-4.7,5.83-10.34,17.04-18.19,36.47-21.32,60.29-3.57,27.13,1.2,60.68,12.71,81.37,7.46,13.41,17.56,18.61,26.88,16.15Z"/><path class="cls-1" d="M5330.13,235.56c6.04-1.33,11.58-6.7,14.53-15.84,4.34-13.44,2.83-27.07-.43-40.52-2.65-10.92-6.11-21.32-10.77-30.93-3.67-7.57-6.96-8.35-12.29-3.02-1.05,1.05-2.2,1.97-3.11,3.22-6.83,9.4-12.01,20.13-14.08,33.27-2.36,14.97,.79,33.49,8.39,44.91,4.93,7.4,11.6,10.27,17.76,8.91Z"/><path class="cls-1" d="M5158.99,350.95c9.85-3.25,18.91-16.45,23.72-38.86,7.08-32.97,4.62-66.41-.7-99.39-4.32-26.78-9.97-52.29-17.58-75.88-5.99-18.57-11.36-20.48-20.07-7.41-1.71,2.57-3.59,4.83-5.07,7.89-11.15,23.06-19.61,49.38-22.99,81.62-3.85,36.72,1.29,82.16,13.7,110.16,8.04,18.15,18.93,25.19,28.98,21.87Z"/><path class="cls-1" d="M5095.87,327.14c-9.14-2.4-17.54-12.15-22-28.7-6.57-24.35-4.29-49.05,.65-73.42,4.01-19.78,9.25-38.63,16.31-56.05,5.56-13.71,10.54-15.13,18.61-5.47,1.59,1.9,3.33,3.57,4.7,5.83,10.34,17.04,18.19,36.47,21.32,60.29,3.57,27.13-1.2,60.68-12.71,81.37-7.46,13.41-17.56,18.61-26.88,16.15Z"/><path class="cls-1" d="M5060.37,262.23c-4.72-1.36-9.06-6.87-11.36-16.23-3.39-13.77-2.21-27.73,.33-41.5,2.07-11.18,4.78-21.83,8.42-31.68,2.87-7.75,5.44-8.55,9.61-3.09,.82,1.07,1.72,2.02,2.43,3.29,5.34,9.63,9.39,20.62,11.01,34.08,1.84,15.33-.62,34.3-6.56,46-3.85,7.58-9.06,10.52-13.88,9.13Z"/><path class="cls-1" d="M5499.09,253.23c-9.53-2.17-18.3-10.99-22.96-25.96-6.85-22.03-4.47-44.36,.68-66.4,4.18-17.89,9.65-34.93,17.01-50.69,5.8-12.4,10.99-13.68,19.42-4.95,1.66,1.72,3.48,3.23,4.91,5.27,10.79,15.41,18.98,32.99,22.25,54.52,3.72,24.53-1.25,54.88-13.26,73.59-7.78,12.13-18.32,16.83-28.05,14.61Z"/><g><rect class="cls-1" x="4601.08" y="97.6" width="118.72" height="7.45"/><rect class="cls-3" x="4598.28" y="96.26" width="124.32" height="3.43"/><rect class="cls-1" x="4574.76" y="106.57" width="171.36" height="365.33"/><rect class="cls-3" x="4573.37" y="103.94" width="174.15" height="5.12"/><g><rect class="cls-2" x="4584.62" y="290.1" width="13.07" height="13.07"/><rect class="cls-2" x="4604.41" y="290.1" width="13.07" height="13.07"/><rect class="cls-2" x="4624.21" y="290.1" width="13.07" height="13.07"/><rect class="cls-2" x="4644.01" y="290.1" width="13.07" height="13.07"/><rect class="cls-2" x="4663.8" y="290.1" width="13.07" height="13.07"/><rect class="cls-2" x="4683.6" y="290.1" width="13.07" height="13.07"/><rect class="cls-2" x="4703.4" y="290.1" width="13.07" height="13.07"/><rect class="cls-2" x="4723.2" y="290.1" width="13.07" height="13.07"/></g><g><rect class="cls-2" x="4584.62" y="324.42" width="13.07" height="13.07"/><rect class="cls-2" x="4604.41" y="324.42" width="13.07" height="13.07"/><rect class="cls-2" x="4624.21" y="324.42" width="13.07" height="13.07"/><rect class="cls-2" x="4644.01" y="324.42" width="13.07" height="13.07"/><rect class="cls-2" x="4663.8" y="324.42" width="13.07" height="13.07"/><rect class="cls-2" x="4683.6" y="324.42" width="13.07" height="13.07"/><rect class="cls-2" x="4703.4" y="324.42" width="13.07" height="13.07"/><rect class="cls-2" x="4723.2" y="324.42" width="13.07" height="13.07"/></g><g><rect class="cls-2" x="4584.62" y="358.74" width="13.07" height="13.07"/><rect class="cls-2" x="4604.41" y="358.74" width="13.07" height="13.07"/><rect class="cls-2" x="4624.21" y="358.74" width="13.07" height="13.07"/><rect class="cls-2" x="4644.01" y="358.74" width="13.07" height="13.07"/><rect class="cls-2" x="4663.8" y="358.74" width="13.07" height="13.07"/><rect class="cls-2" x="4683.6" y="358.74" width="13.07" height="13.07"/><rect class="cls-2" x="4703.4" y="358.74" width="13.07" height="13.07"/><rect class="cls-2" x="4723.2" y="358.74" width="13.07" height="13.07"/></g><g><rect class="cls-2" x="4584.62" y="392.29" width="13.07" height="13.07"/><rect class="cls-2" x="4604.41" y="392.29" width="13.07" height="13.07"/><rect class="cls-2" x="4624.21" y="392.29" width="13.07" height="13.07"/><rect class="cls-2" x="4644.01" y="392.29" width="13.07" height="13.07"/><rect class="cls-2" x="4663.8" y="392.29" width="13.07" height="13.07"/><rect class="cls-2" x="4683.6" y="392.29" width="13.07" height="13.07"/><rect class="cls-2" x="4703.4" y="392.29" width="13.07" height="13.07"/><rect class="cls-2" x="4723.2" y="392.29" width="13.07" height="13.07"/></g><g><rect class="cls-2" x="4584.62" y="426.61" width="13.07" height="13.07"/><rect class="cls-2" x="4604.41" y="426.61" width="13.07" height="13.07"/><rect class="cls-2" x="4624.21" y="426.61" width="13.07" height="13.07"/><rect class="cls-2" x="4644.01" y="426.61" width="13.07" height="13.07"/><rect class="cls-2" x="4663.8" y="426.61" width="13.07" height="13.07"/><rect class="cls-2" x="4683.6" y="426.61" width="13.07" height="13.07"/><rect class="cls-2" x="4703.4" y="426.61" width="13.07" height="13.07"/><rect class="cls-2" x="4723.2" y="426.61" width="13.07" height="13.07"/></g><g><rect class="cls-2" x="4584.62" y="121.68" width="13.07" height="13.07"/><rect class="cls-2" x="4604.41" y="121.68" width="13.07" height="13.07"/><rect class="cls-2" x="4624.21" y="121.68" width="13.07" height="13.07"/><rect class="cls-2" x="4644.01" y="121.68" width="13.07" height="13.07"/><rect class="cls-2" x="4663.8" y="121.68" width="13.07" height="13.07"/><rect class="cls-2" x="4683.6" y="121.68" width="13.07" height="13.07"/><rect class="cls-2" x="4703.4" y="121.68" width="13.07" height="13.07"/><rect class="cls-2" x="4723.2" y="121.68" width="13.07" height="13.07"/></g><g><rect class="cls-2" x="4584.62" y="156" width="13.07" height="13.07"/><rect class="cls-2" x="4604.41" y="156" width="13.07" height="13.07"/><rect class="cls-2" x="4624.21" y="156" width="13.07" height="13.07"/><rect class="cls-2" x="4644.01" y="156" width="13.07" height="13.07"/><rect class="cls-2" x="4663.8" y="156" width="13.07" height="13.07"/><rect class="cls-2" x="4683.6" y="156" width="13.07" height="13.07"/><rect class="cls-2" x="4703.4" y="156" width="13.07" height="13.07"/><rect class="cls-2" x="4723.2" y="156" width="13.07" height="13.07"/></g><g><rect class="cls-2" x="4584.62" y="190.32" width="13.07" height="13.07"/><rect class="cls-2" x="4604.41" y="190.32" width="13.07" height="13.07"/><rect class="cls-2" x="4624.21" y="190.32" width="13.07" height="13.07"/><rect class="cls-2" x="4644.01" y="190.32" width="13.07" height="13.07"/><rect class="cls-2" x="4663.8" y="190.32" width="13.07" height="13.07"/><rect class="cls-2" x="4683.6" y="190.32" width="13.07" height="13.07"/><rect class="cls-2" x="4703.4" y="190.32" width="13.07" height="13.07"/><rect class="cls-2" x="4723.2" y="190.32" width="13.07" height="13.07"/></g><g><rect class="cls-2" x="4584.62" y="224.64" width="13.07" height="13.07"/><rect class="cls-2" x="4604.41" y="224.64" width="13.07" height="13.07"/><rect class="cls-2" x="4624.21" y="224.64" width="13.07" height="13.07"/><rect class="cls-2" x="4644.01" y="224.64" width="13.07" height="13.07"/><rect class="cls-2" x="4663.8" y="224.64" width="13.07" height="13.07"/><rect class="cls-2" x="4683.6" y="224.64" width="13.07" height="13.07"/><rect class="cls-2" x="4703.4" y="224.64" width="13.07" height="13.07"/><rect class="cls-2" x="4723.2" y="224.64" width="13.07" height="13.07"/></g><g><rect class="cls-2" x="4584.62" y="256.77" width="13.07" height="13.07"/><rect class="cls-2" x="4604.41" y="256.77" width="13.07" height="13.07"/><rect class="cls-2" x="4624.21" y="256.77" width="13.07" height="13.07"/><rect class="cls-2" x="4644.01" y="256.77" width="13.07" height="13.07"/><rect class="cls-2" x="4663.8" y="256.77" width="13.07" height="13.07"/><rect class="cls-2" x="4683.6" y="256.77" width="13.07" height="13.07"/><rect class="cls-2" x="4703.4" y="256.77" width="13.07" height="13.07"/><rect class="cls-2" x="4723.2" y="256.77" width="13.07" height="13.07"/></g></g><g><path class="cls-1" d="M4413.8,113.01l-18.81-13.66c-1.28-.93-3.03-.93-4.31,0l-18.81,13.66V244.11s41.94,0,41.94,0V113.01Z"/><rect class="cls-1" x="4342.91" y="121.6" width="29.65" height="120.96" transform="translate(8715.46 364.16) rotate(-180)"/><rect class="cls-1" x="4348.89" y="106.38" width="13.37" height="19.7" transform="translate(8711.16 232.46) rotate(-180)"/><rect class="cls-1" x="4413.74" y="137.42" width="31.09" height="100.24" transform="translate(8858.57 375.08) rotate(-180)"/><rect class="cls-1" x="4444.81" y="116.35" width="28.2" height="126.72" transform="translate(8917.83 359.43) rotate(-180)"/><rect class="cls-1" x="4472.25" y="97.79" width="22.08" height="143.74" transform="translate(8966.59 339.31) rotate(-180)"/><rect class="cls-1" x="4526.97" y="122.59" width="26.73" height="115.71" transform="translate(9080.68 360.89) rotate(-180)"/><rect class="cls-1" x="4553.71" y="136.33" width="23.13" height="97.41" transform="translate(9130.55 370.07) rotate(-180)"/><polygon class="cls-1" points="4526.97 145.7 4493.98 132.02 4493.98 233.79 4526.97 233.79 4526.97 145.7"/></g><path class="cls-1" d="M1024.27,503.21c.67-3.38,1.41-6.75,2.2-10.1,.76-3.24,1.58-6.46,2.46-9.67,1.71-6.25,3.62-12.45,5.74-18.59,.41-1.18,.82-2.36,1.24-3.53,3.8-10.59,8.21-21,13.19-31.19,.86-1.77,1.74-3.52,2.64-5.27,.06-.13,.12-.25,.19-.37,1.37-2.69,2.79-5.36,4.25-8.01,.65-1.19,1.31-2.37,1.97-3.54,6.16-10.9,12.99-21.53,20.45-31.87,.86-1.18,1.72-2.37,2.59-3.54,4.39-5.93,8.99-11.76,13.8-17.49,1.21-1.45,2.44-2.9,3.7-4.34,7.83-9.08,16.18-17.88,25.01-26.38,.06-.07,.11-.12,.17-.16,11.58-11.16,23.99-21.8,37.15-31.88,1.55-1.2,3.11-2.37,4.68-3.54,1.64-1.23,3.29-2.44,4.95-3.64,.87-.64,1.75-1.28,2.64-1.9,6.59-4.73,13.36-9.31,20.3-13.75,1.22-.79,2.46-1.57,3.7-2.34,9.27-5.83,18.82-11.41,28.64-16.71,31.28-16.92,65.28-31.18,101.42-42.32,1.46-.45,2.92-.9,4.39-1.34h.01c.81-.25,1.63-.49,2.45-.74,0,0,.01,0,.02,0,1.04-.29,2.05-.6,3.09-.9h.04c4.39-1.28,8.81-2.5,13.26-3.68,.91-.24,1.82-.48,2.73-.71,51.04-13.29,105.85-20.51,162.9-20.51,209.35,0,388.48,97.14,461.91,234.69,1.52,2.86,3,5.74,4.44,8.64,.3,.61,.6,1.22,.9,1.83,.02,.04,.04,.08,.06,.13,.49,1.01,.98,2.02,1.45,3.04,1.65,3.46,3.22,6.94,4.72,10.44,.72,1.66,1.42,3.33,2.11,5,7.18,17.56-967.56,54.25-967.56,54.25Z"/><path class="cls-1" d="M730.46,389.96c-15.39-3.51-29.54-17.74-37.06-41.91-11.06-35.56-7.22-71.62,1.09-107.19,6.75-28.88,15.58-56.4,27.47-81.83,9.36-20.02,17.75-22.09,31.35-7.99,2.68,2.77,5.61,5.21,7.92,8.51,17.42,24.87,30.64,53.25,35.91,88.03,6.01,39.6-2.02,88.6-21.4,118.8-12.57,19.58-29.57,27.17-45.28,23.58Z"/><path class="cls-1" d="M62.47,246.12c-.05,13.15-.6,26.48-1.64,39.62-.04,.53-.08,1.06-.13,1.59-.04,.53-.08,1.05-.13,1.57-.22,2.63-.46,5.24-.73,7.84-.17,1.72-.35,3.44-.54,5.16-.46,4.21-.98,8.38-1.55,12.51h0c-1.48,10.81-3.3,21.27-5.44,31.16-2.26,10.41-4.87,20.19-7.83,29.06-.77,2.31-1.56,4.56-2.38,6.74-.68,1.8-1.37,3.54-2.07,5.21-.4,.95-.8,1.87-1.21,2.77-.47,1.05-.95,2.06-1.43,3.05-.56,1.15-1.13,2.26-1.7,3.33h0c-.87,1.61-1.75,3.13-2.65,4.56-2.06,3.32-4.2,6.17-6.39,8.55-.26,.28-.52,.55-.79,.82-3.9,4.03-7.96,6.58-12.03,7.67-1.91,.53-3.82,.72-5.72,.59-1.55-.09-3.1-.4-4.63-.91-.16-.06-.32-.11-.48-.17-.02,0-.05-.02-.07-.03-.12-.04-.23-.08-.35-.13-.87-.34-1.73-.74-2.58-1.22V56.22c6.44-15.48,13.02-14.08,22.52,2.81,2.34,4.15,4.9,7.8,6.91,12.73,7.15,17.51,13.49,36.17,18.67,56.45,3.17,12.37,5.9,25.33,8.13,39,1.59,9.69,2.91,19.73,3.96,30.16,.2,2.04,.4,4.09,.58,6.16,.33,3.78,.62,7.61,.85,11.49,.47,7.65,.74,15.47,.82,23.39,.04,2.56,.05,5.13,.03,7.71Z"/><path class="cls-1" d="M196.58,368.86c14.75-3.88,28.32-19.61,35.52-46.34,10.6-39.32,6.92-79.19-1.05-118.52-6.47-31.94-14.93-62.36-26.33-90.48-8.97-22.14-17.01-24.43-30.05-8.83-2.56,3.07-5.38,5.76-7.59,9.41-16.7,27.5-29.36,58.88-34.42,97.33-5.76,43.79,1.93,97.97,20.51,131.36,12.04,21.65,28.34,30.04,43.4,26.08Z"/><path class="cls-1" d="M688,275.48c6.6-1.55,12.67-7.81,15.89-18.46,4.74-15.67,3.1-31.55-.47-47.22-2.89-12.72-6.68-24.85-11.78-36.05-4.01-8.82-7.61-9.73-13.44-3.52-1.15,1.22-2.41,2.29-3.4,3.75-7.47,10.96-13.14,23.46-15.4,38.78-2.58,17.45,.86,39.03,9.18,52.34,5.39,8.63,12.68,11.97,19.42,10.39Z"/><g><path class="cls-1" d="M3658.13,100.15l18.81-13.66c1.28-.93,3.03-.93,4.31,0l18.81,13.66V231.24h-41.94V100.15Z"/><rect class="cls-1" x="3699.38" y="108.73" width="29.65" height="120.96"/><rect class="cls-1" x="3709.67" y="93.52" width="13.37" height="19.7"/><rect class="cls-1" x="3627.1" y="124.55" width="31.09" height="100.24"/><rect class="cls-1" x="3598.92" y="103.49" width="28.2" height="126.72"/><rect class="cls-1" x="3577.6" y="84.92" width="22.08" height="143.74"/><rect class="cls-1" x="3518.22" y="109.72" width="26.73" height="115.71"/><rect class="cls-1" x="3495.09" y="123.46" width="23.13" height="97.41"/><polygon class="cls-1" points="3544.96 132.83 3577.95 119.15 3577.95 220.92 3544.96 220.92 3544.96 132.83"/></g><g><path class="cls-1" d="M3898.94,149.7l20.52-13.66c1.4-.93,3.3-.93,4.7,0l20.52,13.66v131.1h-45.73V149.7Z"/><rect class="cls-1" x="3943.92" y="158.28" width="32.33" height="120.96"/><rect class="cls-1" x="3955.14" y="143.07" width="14.58" height="19.7"/><rect class="cls-1" x="3865.11" y="174.1" width="33.9" height="100.24"/><rect class="cls-1" x="3834.38" y="153.04" width="30.75" height="126.72"/><rect class="cls-1" x="3811.13" y="134.47" width="24.08" height="143.74"/><rect class="cls-1" x="3746.38" y="159.27" width="29.15" height="115.71"/><rect class="cls-1" x="3721.15" y="173.01" width="25.23" height="97.41"/><polygon class="cls-1" points="3775.53 182.38 3811.51 168.7 3811.51 270.47 3775.53 270.47 3775.53 182.38"/></g><g><path class="cls-1" d="M4031.66,141.73l-16.66-13.68c-1.14-.93-2.68-.93-3.81,0l-16.66,13.68v131.32s37.12,0,37.12,0V141.73Z"/><rect class="cls-1" x="3968.9" y="150.33" width="26.25" height="121.17" transform="translate(7964.04 421.83) rotate(-180)"/><rect class="cls-1" x="3974.19" y="135.1" width="11.84" height="19.73" transform="translate(7960.23 289.92) rotate(-180)"/><rect class="cls-1" x="4031.6" y="166.18" width="27.52" height="100.41" transform="translate(8090.73 432.77) rotate(-180)"/><rect class="cls-1" x="4059.11" y="145.08" width="24.96" height="126.94" transform="translate(8143.19 417.1) rotate(-180)"/><rect class="cls-1" x="4083.4" y="126.48" width="19.55" height="143.98" transform="translate(8186.36 396.95) rotate(-180)"/><rect class="cls-1" x="4131.85" y="151.33" width="23.67" height="115.91" transform="translate(8287.36 418.56) rotate(-180)"/><rect class="cls-1" x="4155.51" y="165.09" width="20.48" height="97.58" transform="translate(8331.51 427.75) rotate(-180)"/><polygon class="cls-1" points="4131.85 174.47 4102.64 160.77 4102.64 262.71 4131.85 262.71 4131.85 174.47"/></g><g><path class="cls-3" d="M3565.85,155.67l-17.34-13.68c-1.18-.93-2.79-.93-3.97,0l-17.34,13.68v131.32s38.65,0,38.65,0V155.67Z"/><rect class="cls-3" x="3500.51" y="164.27" width="27.32" height="121.17" transform="translate(7028.34 449.7) rotate(-180)"/><rect class="cls-3" x="3506.03" y="149.03" width="12.33" height="19.73" transform="translate(7024.38 317.79) rotate(-180)"/><rect class="cls-3" x="3565.79" y="180.12" width="28.66" height="100.41" transform="translate(7160.24 460.64) rotate(-180)"/><rect class="cls-3" x="3594.44" y="159.02" width="25.99" height="126.94" transform="translate(7214.86 444.97) rotate(-180)"/><rect class="cls-3" x="3619.73" y="140.42" width="20.35" height="143.98" transform="translate(7259.8 424.82) rotate(-180)"/><rect class="cls-3" x="3670.16" y="165.26" width="24.64" height="115.91" transform="translate(7364.96 446.43) rotate(-180)"/><rect class="cls-3" x="3694.8" y="179.02" width="21.32" height="97.58" transform="translate(7410.92 455.62) rotate(-180)"/><polygon class="cls-3" points="3670.16 188.41 3639.75 174.71 3639.75 276.65 3670.16 276.65 3670.16 188.41"/></g><g><rect class="cls-3" x="3376.7" y="1.25" width="110.74" height="6.95"/><rect class="cls-3" x="3374.08" width="115.97" height="3.2"/><rect class="cls-3" x="3352.14" y="9.62" width="159.85" height="450.03"/><rect class="cls-3" x="3350.84" y="7.17" width="162.45" height="4.78"/><g><rect class="cls-4" x="3361.34" y="180.81" width="12.2" height="12.2"/><rect class="cls-4" x="3379.8" y="180.81" width="12.2" height="12.2"/><rect class="cls-4" x="3398.27" y="180.81" width="12.2" height="12.2"/><rect class="cls-4" x="3416.74" y="180.81" width="12.2" height="12.2"/><rect class="cls-4" x="3435.2" y="180.81" width="12.2" height="12.2"/><rect class="cls-4" x="3453.67" y="180.81" width="12.2" height="12.2"/><rect class="cls-4" x="3472.14" y="180.81" width="12.2" height="12.2"/><rect class="cls-4" x="3490.61" y="180.81" width="12.2" height="12.2"/></g><g><rect class="cls-4" x="3361.34" y="212.83" width="12.2" height="12.2"/><rect class="cls-4" x="3379.8" y="212.83" width="12.2" height="12.2"/><rect class="cls-4" x="3398.27" y="212.83" width="12.2" height="12.2"/><rect class="cls-4" x="3416.74" y="212.83" width="12.2" height="12.2"/><rect class="cls-4" x="3435.2" y="212.83" width="12.2" height="12.2"/><rect class="cls-4" x="3453.67" y="212.83" width="12.2" height="12.2"/><rect class="cls-4" x="3472.14" y="212.83" width="12.2" height="12.2"/><rect class="cls-4" x="3490.61" y="212.83" width="12.2" height="12.2"/></g><g><rect class="cls-4" x="3361.34" y="244.85" width="12.2" height="12.2"/><rect class="cls-4" x="3379.8" y="244.85" width="12.2" height="12.2"/><rect class="cls-4" x="3398.27" y="244.85" width="12.2" height="12.2"/><rect class="cls-4" x="3416.74" y="244.85" width="12.2" height="12.2"/><rect class="cls-4" x="3435.2" y="244.85" width="12.2" height="12.2"/><rect class="cls-4" x="3453.67" y="244.85" width="12.2" height="12.2"/><rect class="cls-4" x="3472.14" y="244.85" width="12.2" height="12.2"/><rect class="cls-4" x="3490.61" y="244.85" width="12.2" height="12.2"/></g><g><rect class="cls-4" x="3361.34" y="276.14" width="12.2" height="12.2"/><rect class="cls-4" x="3379.8" y="276.14" width="12.2" height="12.2"/><rect class="cls-4" x="3398.27" y="276.14" width="12.2" height="12.2"/><rect class="cls-4" x="3416.74" y="276.14" width="12.2" height="12.2"/><rect class="cls-4" x="3435.2" y="276.14" width="12.2" height="12.2"/><rect class="cls-4" x="3453.67" y="276.14" width="12.2" height="12.2"/><rect class="cls-4" x="3472.14" y="276.14" width="12.2" height="12.2"/><rect class="cls-4" x="3490.61" y="276.14" width="12.2" height="12.2"/></g><g><rect class="cls-4" x="3361.34" y="308.16" width="12.2" height="12.2"/><rect class="cls-4" x="3379.8" y="308.16" width="12.2" height="12.2"/><rect class="cls-4" x="3398.27" y="308.16" width="12.2" height="12.2"/><rect class="cls-4" x="3416.74" y="308.16" width="12.2" height="12.2"/><rect class="cls-4" x="3435.2" y="308.16" width="12.2" height="12.2"/><rect class="cls-4" x="3453.67" y="308.16" width="12.2" height="12.2"/><rect class="cls-4" x="3472.14" y="308.16" width="12.2" height="12.2"/><rect class="cls-4" x="3490.61" y="308.16" width="12.2" height="12.2"/></g><g><rect class="cls-4" x="3361.34" y="339.7" width="12.2" height="12.2"/><rect class="cls-4" x="3379.8" y="339.7" width="12.2" height="12.2"/><rect class="cls-4" x="3398.27" y="339.7" width="12.2" height="12.2"/><rect class="cls-4" x="3416.74" y="339.7" width="12.2" height="12.2"/><rect class="cls-4" x="3435.2" y="339.7" width="12.2" height="12.2"/><rect class="cls-4" x="3453.67" y="339.7" width="12.2" height="12.2"/><rect class="cls-4" x="3472.14" y="339.7" width="12.2" height="12.2"/><rect class="cls-4" x="3490.61" y="339.7" width="12.2" height="12.2"/></g><g><rect class="cls-4" x="3361.34" y="370.99" width="12.2" height="12.2"/><rect class="cls-4" x="3379.8" y="370.99" width="12.2" height="12.2"/><rect class="cls-4" x="3398.27" y="370.99" width="12.2" height="12.2"/><rect class="cls-4" x="3416.74" y="370.99" width="12.2" height="12.2"/><rect class="cls-4" x="3435.2" y="370.99" width="12.2" height="12.2"/><rect class="cls-4" x="3453.67" y="370.99" width="12.2" height="12.2"/><rect class="cls-4" x="3472.14" y="370.99" width="12.2" height="12.2"/><rect class="cls-4" x="3490.61" y="370.99" width="12.2" height="12.2"/></g><g><rect class="cls-4" x="3361.34" y="403.01" width="12.2" height="12.2"/><rect class="cls-4" x="3379.8" y="403.01" width="12.2" height="12.2"/><rect class="cls-4" x="3398.27" y="403.01" width="12.2" height="12.2"/><rect class="cls-4" x="3416.74" y="403.01" width="12.2" height="12.2"/><rect class="cls-4" x="3435.2" y="403.01" width="12.2" height="12.2"/><rect class="cls-4" x="3453.67" y="403.01" width="12.2" height="12.2"/><rect class="cls-4" x="3472.14" y="403.01" width="12.2" height="12.2"/><rect class="cls-4" x="3490.61" y="403.01" width="12.2" height="12.2"/></g><g><rect class="cls-4" x="3361.34" y="23.71" width="12.2" height="12.2"/><rect class="cls-4" x="3379.8" y="23.71" width="12.2" height="12.2"/><rect class="cls-4" x="3398.27" y="23.71" width="12.2" height="12.2"/><rect class="cls-4" x="3416.74" y="23.71" width="12.2" height="12.2"/><rect class="cls-4" x="3435.2" y="23.71" width="12.2" height="12.2"/><rect class="cls-4" x="3453.67" y="23.71" width="12.2" height="12.2"/><rect class="cls-4" x="3472.14" y="23.71" width="12.2" height="12.2"/><rect class="cls-4" x="3490.61" y="23.71" width="12.2" height="12.2"/></g><g><rect class="cls-4" x="3361.34" y="55.73" width="12.2" height="12.2"/><rect class="cls-4" x="3379.8" y="55.73" width="12.2" height="12.2"/><rect class="cls-4" x="3398.27" y="55.73" width="12.2" height="12.2"/><rect class="cls-4" x="3416.74" y="55.73" width="12.2" height="12.2"/><rect class="cls-4" x="3435.2" y="55.73" width="12.2" height="12.2"/><rect class="cls-4" x="3453.67" y="55.73" width="12.2" height="12.2"/><rect class="cls-4" x="3472.14" y="55.73" width="12.2" height="12.2"/><rect class="cls-4" x="3490.61" y="55.73" width="12.2" height="12.2"/></g><g><rect class="cls-4" x="3361.34" y="87.74" width="12.2" height="12.2"/><rect class="cls-4" x="3379.8" y="87.74" width="12.2" height="12.2"/><rect class="cls-4" x="3398.27" y="87.74" width="12.2" height="12.2"/><rect class="cls-4" x="3416.74" y="87.74" width="12.2" height="12.2"/><rect class="cls-4" x="3435.2" y="87.74" width="12.2" height="12.2"/><rect class="cls-4" x="3453.67" y="87.74" width="12.2" height="12.2"/><rect class="cls-4" x="3472.14" y="87.74" width="12.2" height="12.2"/><rect class="cls-4" x="3490.61" y="87.74" width="12.2" height="12.2"/></g><g><rect class="cls-4" x="3361.34" y="119.76" width="12.2" height="12.2"/><rect class="cls-4" x="3379.8" y="119.76" width="12.2" height="12.2"/><rect class="cls-4" x="3398.27" y="119.76" width="12.2" height="12.2"/><rect class="cls-4" x="3416.74" y="119.76" width="12.2" height="12.2"/><rect class="cls-4" x="3435.2" y="119.76" width="12.2" height="12.2"/><rect class="cls-4" x="3453.67" y="119.76" width="12.2" height="12.2"/><rect class="cls-4" x="3472.14" y="119.76" width="12.2" height="12.2"/><rect class="cls-4" x="3490.61" y="119.76" width="12.2" height="12.2"/></g><g><rect class="cls-4" x="3361.34" y="149.73" width="12.2" height="12.2"/><rect class="cls-4" x="3379.8" y="149.73" width="12.2" height="12.2"/><rect class="cls-4" x="3398.27" y="149.73" width="12.2" height="12.2"/><rect class="cls-4" x="3416.74" y="149.73" width="12.2" height="12.2"/><rect class="cls-4" x="3435.2" y="149.73" width="12.2" height="12.2"/><rect class="cls-4" x="3453.67" y="149.73" width="12.2" height="12.2"/><rect class="cls-4" x="3472.14" y="149.73" width="12.2" height="12.2"/><rect class="cls-4" x="3490.61" y="149.73" width="12.2" height="12.2"/></g></g><path class="cls-1" d="M55.63,197.19c-5.89-1.19-11.31-5.99-14.19-14.16-4.23-12.01-2.76-24.19,.42-36.21,2.58-9.76,5.97-19.05,10.52-27.64,3.58-6.76,6.8-7.46,12-2.7,1.02,.94,2.15,1.76,3.03,2.87,6.67,8.4,11.73,17.99,13.75,29.73,2.3,13.38-.77,29.93-8.19,40.13-4.81,6.61-11.32,9.18-17.34,7.97Z"/><g><rect class="cls-1" x="3267.71" y="29.1" width="118.72" height="7.45"/><rect class="cls-3" x="3264.91" y="27.76" width="124.32" height="3.43"/><rect class="cls-1" x="3241.39" y="38.07" width="171.36" height="365.33"/><rect class="cls-1" x="3241.39" y="90.72" width="171.36" height="365.33"/><rect class="cls-3" x="3239.99" y="35.45" width="174.15" height="5.12"/><g><rect class="cls-2" x="3251.24" y="221.6" width="13.07" height="13.07"/><rect class="cls-2" x="3271.04" y="221.6" width="13.07" height="13.07"/><rect class="cls-2" x="3290.84" y="221.6" width="13.07" height="13.07"/><rect class="cls-2" x="3310.63" y="221.6" width="13.07" height="13.07"/><rect class="cls-2" x="3330.43" y="221.6" width="13.07" height="13.07"/><rect class="cls-2" x="3350.23" y="221.6" width="13.07" height="13.07"/><rect class="cls-2" x="3370.03" y="221.6" width="13.07" height="13.07"/><rect class="cls-2" x="3389.82" y="221.6" width="13.07" height="13.07"/></g><g><rect class="cls-2" x="3251.24" y="255.92" width="13.07" height="13.07"/><rect class="cls-2" x="3271.04" y="255.92" width="13.07" height="13.07"/><rect class="cls-2" x="3290.84" y="255.92" width="13.07" height="13.07"/><rect class="cls-2" x="3310.63" y="255.92" width="13.07" height="13.07"/><rect class="cls-2" x="3330.43" y="255.92" width="13.07" height="13.07"/><rect class="cls-2" x="3350.23" y="255.92" width="13.07" height="13.07"/><rect class="cls-2" x="3370.03" y="255.92" width="13.07" height="13.07"/><rect class="cls-2" x="3389.82" y="255.92" width="13.07" height="13.07"/></g><g><rect class="cls-2" x="3251.24" y="290.24" width="13.07" height="13.07"/><rect class="cls-2" x="3271.04" y="290.24" width="13.07" height="13.07"/><rect class="cls-2" x="3290.84" y="290.24" width="13.07" height="13.07"/><rect class="cls-2" x="3310.63" y="290.24" width="13.07" height="13.07"/><rect class="cls-2" x="3330.43" y="290.24" width="13.07" height="13.07"/><rect class="cls-2" x="3350.23" y="290.24" width="13.07" height="13.07"/><rect class="cls-2" x="3370.03" y="290.24" width="13.07" height="13.07"/><rect class="cls-2" x="3389.82" y="290.24" width="13.07" height="13.07"/></g><g><rect class="cls-2" x="3251.24" y="323.79" width="13.07" height="13.07"/><rect class="cls-2" x="3271.04" y="323.79" width="13.07" height="13.07"/><rect class="cls-2" x="3290.84" y="323.79" width="13.07" height="13.07"/><rect class="cls-2" x="3310.63" y="323.79" width="13.07" height="13.07"/><rect class="cls-2" x="3330.43" y="323.79" width="13.07" height="13.07"/><rect class="cls-2" x="3350.23" y="323.79" width="13.07" height="13.07"/><rect class="cls-2" x="3370.03" y="323.79" width="13.07" height="13.07"/><rect class="cls-2" x="3389.82" y="323.79" width="13.07" height="13.07"/></g><g><rect class="cls-2" x="3251.24" y="358.11" width="13.07" height="13.07"/><rect class="cls-2" x="3271.04" y="358.11" width="13.07" height="13.07"/><rect class="cls-2" x="3290.84" y="358.11" width="13.07" height="13.07"/><rect class="cls-2" x="3310.63" y="358.11" width="13.07" height="13.07"/><rect class="cls-2" x="3330.43" y="358.11" width="13.07" height="13.07"/><rect class="cls-2" x="3350.23" y="358.11" width="13.07" height="13.07"/><rect class="cls-2" x="3370.03" y="358.11" width="13.07" height="13.07"/><rect class="cls-2" x="3389.82" y="358.11" width="13.07" height="13.07"/></g><g><rect class="cls-2" x="3251.24" y="53.18" width="13.07" height="13.07"/><rect class="cls-2" x="3271.04" y="53.18" width="13.07" height="13.07"/><rect class="cls-2" x="3290.84" y="53.18" width="13.07" height="13.07"/><rect class="cls-2" x="3310.63" y="53.18" width="13.07" height="13.07"/><rect class="cls-2" x="3330.43" y="53.18" width="13.07" height="13.07"/><rect class="cls-2" x="3350.23" y="53.18" width="13.07" height="13.07"/><rect class="cls-2" x="3370.03" y="53.18" width="13.07" height="13.07"/><rect class="cls-2" x="3389.82" y="53.18" width="13.07" height="13.07"/></g><g><rect class="cls-2" x="3251.24" y="87.5" width="13.07" height="13.07"/><rect class="cls-2" x="3271.04" y="87.5" width="13.07" height="13.07"/><rect class="cls-2" x="3290.84" y="87.5" width="13.07" height="13.07"/><rect class="cls-2" x="3310.63" y="87.5" width="13.07" height="13.07"/><rect class="cls-2" x="3330.43" y="87.5" width="13.07" height="13.07"/><rect class="cls-2" x="3350.23" y="87.5" width="13.07" height="13.07"/><rect class="cls-2" x="3370.03" y="87.5" width="13.07" height="13.07"/><rect class="cls-2" x="3389.82" y="87.5" width="13.07" height="13.07"/></g><g><rect class="cls-2" x="3251.24" y="121.82" width="13.07" height="13.07"/><rect class="cls-2" x="3271.04" y="121.82" width="13.07" height="13.07"/><rect class="cls-2" x="3290.84" y="121.82" width="13.07" height="13.07"/><rect class="cls-2" x="3310.63" y="121.82" width="13.07" height="13.07"/><rect class="cls-2" x="3330.43" y="121.82" width="13.07" height="13.07"/><rect class="cls-2" x="3350.23" y="121.82" width="13.07" height="13.07"/><rect class="cls-2" x="3370.03" y="121.82" width="13.07" height="13.07"/><rect class="cls-2" x="3389.82" y="121.82" width="13.07" height="13.07"/></g><g><rect class="cls-2" x="3251.24" y="156.15" width="13.07" height="13.07"/><rect class="cls-2" x="3271.04" y="156.15" width="13.07" height="13.07"/><rect class="cls-2" x="3290.84" y="156.15" width="13.07" height="13.07"/><rect class="cls-2" x="3310.63" y="156.15" width="13.07" height="13.07"/><rect class="cls-2" x="3330.43" y="156.15" width="13.07" height="13.07"/><rect class="cls-2" x="3350.23" y="156.15" width="13.07" height="13.07"/><rect class="cls-2" x="3370.03" y="156.15" width="13.07" height="13.07"/><rect class="cls-2" x="3389.82" y="156.15" width="13.07" height="13.07"/></g><g><rect class="cls-2" x="3251.24" y="188.28" width="13.07" height="13.07"/><rect class="cls-2" x="3271.04" y="188.28" width="13.07" height="13.07"/><rect class="cls-2" x="3290.84" y="188.28" width="13.07" height="13.07"/><rect class="cls-2" x="3310.63" y="188.28" width="13.07" height="13.07"/><rect class="cls-2" x="3330.43" y="188.28" width="13.07" height="13.07"/><rect class="cls-2" x="3350.23" y="188.28" width="13.07" height="13.07"/><rect class="cls-2" x="3370.03" y="188.28" width="13.07" height="13.07"/><rect class="cls-2" x="3389.82" y="188.28" width="13.07" height="13.07"/></g></g><g><rect class="cls-3" x="6871.52" y="1.25" width="110.74" height="6.95"/><rect class="cls-3" x="6868.91" width="115.97" height="3.2"/><rect class="cls-3" x="6846.97" y="9.62" width="159.85" height="450.03"/><rect class="cls-3" x="6845.67" y="7.17" width="162.45" height="4.78"/><g><rect class="cls-4" x="6856.16" y="180.81" width="12.2" height="12.2"/><rect class="cls-4" x="6874.63" y="180.81" width="12.2" height="12.2"/><rect class="cls-4" x="6893.09" y="180.81" width="12.2" height="12.2"/><rect class="cls-4" x="6911.56" y="180.81" width="12.2" height="12.2"/><rect class="cls-4" x="6930.03" y="180.81" width="12.2" height="12.2"/><rect class="cls-4" x="6948.49" y="180.81" width="12.2" height="12.2"/><rect class="cls-4" x="6966.96" y="180.81" width="12.2" height="12.2"/><rect class="cls-4" x="6985.43" y="180.81" width="12.2" height="12.2"/></g><g><rect class="cls-4" x="6856.16" y="212.83" width="12.2" height="12.2"/><rect class="cls-4" x="6874.63" y="212.83" width="12.2" height="12.2"/><rect class="cls-4" x="6893.09" y="212.83" width="12.2" height="12.2"/><rect class="cls-4" x="6911.56" y="212.83" width="12.2" height="12.2"/><rect class="cls-4" x="6930.03" y="212.83" width="12.2" height="12.2"/><rect class="cls-4" x="6948.49" y="212.83" width="12.2" height="12.2"/><rect class="cls-4" x="6966.96" y="212.83" width="12.2" height="12.2"/><rect class="cls-4" x="6985.43" y="212.83" width="12.2" height="12.2"/></g><g><rect class="cls-4" x="6856.16" y="244.85" width="12.2" height="12.2"/><rect class="cls-4" x="6874.63" y="244.85" width="12.2" height="12.2"/><rect class="cls-4" x="6893.09" y="244.85" width="12.2" height="12.2"/><rect class="cls-4" x="6911.56" y="244.85" width="12.2" height="12.2"/><rect class="cls-4" x="6930.03" y="244.85" width="12.2" height="12.2"/><rect class="cls-4" x="6948.49" y="244.85" width="12.2" height="12.2"/><rect class="cls-4" x="6966.96" y="244.85" width="12.2" height="12.2"/><rect class="cls-4" x="6985.43" y="244.85" width="12.2" height="12.2"/></g><g><rect class="cls-4" x="6856.16" y="276.14" width="12.2" height="12.2"/><rect class="cls-4" x="6874.63" y="276.14" width="12.2" height="12.2"/><rect class="cls-4" x="6893.09" y="276.14" width="12.2" height="12.2"/><rect class="cls-4" x="6911.56" y="276.14" width="12.2" height="12.2"/><rect class="cls-4" x="6930.03" y="276.14" width="12.2" height="12.2"/><rect class="cls-4" x="6948.49" y="276.14" width="12.2" height="12.2"/><rect class="cls-4" x="6966.96" y="276.14" width="12.2" height="12.2"/><rect class="cls-4" x="6985.43" y="276.14" width="12.2" height="12.2"/></g><g><rect class="cls-4" x="6856.16" y="308.16" width="12.2" height="12.2"/><rect class="cls-4" x="6874.63" y="308.16" width="12.2" height="12.2"/><rect class="cls-4" x="6893.09" y="308.16" width="12.2" height="12.2"/><rect class="cls-4" x="6911.56" y="308.16" width="12.2" height="12.2"/><rect class="cls-4" x="6930.03" y="308.16" width="12.2" height="12.2"/><rect class="cls-4" x="6948.49" y="308.16" width="12.2" height="12.2"/><rect class="cls-4" x="6966.96" y="308.16" width="12.2" height="12.2"/><rect class="cls-4" x="6985.43" y="308.16" width="12.2" height="12.2"/></g><g><rect class="cls-4" x="6856.16" y="339.7" width="12.2" height="12.2"/><rect class="cls-4" x="6874.63" y="339.7" width="12.2" height="12.2"/><rect class="cls-4" x="6893.09" y="339.7" width="12.2" height="12.2"/><rect class="cls-4" x="6911.56" y="339.7" width="12.2" height="12.2"/><rect class="cls-4" x="6930.03" y="339.7" width="12.2" height="12.2"/><rect class="cls-4" x="6948.49" y="339.7" width="12.2" height="12.2"/><rect class="cls-4" x="6966.96" y="339.7" width="12.2" height="12.2"/><rect class="cls-4" x="6985.43" y="339.7" width="12.2" height="12.2"/></g><g><rect class="cls-4" x="6856.16" y="370.99" width="12.2" height="12.2"/><rect class="cls-4" x="6874.63" y="370.99" width="12.2" height="12.2"/><rect class="cls-4" x="6893.09" y="370.99" width="12.2" height="12.2"/><rect class="cls-4" x="6911.56" y="370.99" width="12.2" height="12.2"/><rect class="cls-4" x="6930.03" y="370.99" width="12.2" height="12.2"/><rect class="cls-4" x="6948.49" y="370.99" width="12.2" height="12.2"/><rect class="cls-4" x="6966.96" y="370.99" width="12.2" height="12.2"/><rect class="cls-4" x="6985.43" y="370.99" width="12.2" height="12.2"/></g><g><rect class="cls-4" x="6856.16" y="403.01" width="12.2" height="12.2"/><rect class="cls-4" x="6874.63" y="403.01" width="12.2" height="12.2"/><rect class="cls-4" x="6893.09" y="403.01" width="12.2" height="12.2"/><rect class="cls-4" x="6911.56" y="403.01" width="12.2" height="12.2"/><rect class="cls-4" x="6930.03" y="403.01" width="12.2" height="12.2"/><rect class="cls-4" x="6948.49" y="403.01" width="12.2" height="12.2"/><rect class="cls-4" x="6966.96" y="403.01" width="12.2" height="12.2"/><rect class="cls-4" x="6985.43" y="403.01" width="12.2" height="12.2"/></g><g><rect class="cls-4" x="6856.16" y="23.71" width="12.2" height="12.2"/><rect class="cls-4" x="6874.63" y="23.71" width="12.2" height="12.2"/><rect class="cls-4" x="6893.09" y="23.71" width="12.2" height="12.2"/><rect class="cls-4" x="6911.56" y="23.71" width="12.2" height="12.2"/><rect class="cls-4" x="6930.03" y="23.71" width="12.2" height="12.2"/><rect class="cls-4" x="6948.49" y="23.71" width="12.2" height="12.2"/><rect class="cls-4" x="6966.96" y="23.71" width="12.2" height="12.2"/><rect class="cls-4" x="6985.43" y="23.71" width="12.2" height="12.2"/></g><g><rect class="cls-4" x="6856.16" y="55.73" width="12.2" height="12.2"/><rect class="cls-4" x="6874.63" y="55.73" width="12.2" height="12.2"/><rect class="cls-4" x="6893.09" y="55.73" width="12.2" height="12.2"/><rect class="cls-4" x="6911.56" y="55.73" width="12.2" height="12.2"/><rect class="cls-4" x="6930.03" y="55.73" width="12.2" height="12.2"/><rect class="cls-4" x="6948.49" y="55.73" width="12.2" height="12.2"/><rect class="cls-4" x="6966.96" y="55.73" width="12.2" height="12.2"/><rect class="cls-4" x="6985.43" y="55.73" width="12.2" height="12.2"/></g><g><rect class="cls-4" x="6856.16" y="87.74" width="12.2" height="12.2"/><rect class="cls-4" x="6874.63" y="87.74" width="12.2" height="12.2"/><rect class="cls-4" x="6893.09" y="87.74" width="12.2" height="12.2"/><rect class="cls-4" x="6911.56" y="87.74" width="12.2" height="12.2"/><rect class="cls-4" x="6930.03" y="87.74" width="12.2" height="12.2"/><rect class="cls-4" x="6948.49" y="87.74" width="12.2" height="12.2"/><rect class="cls-4" x="6966.96" y="87.74" width="12.2" height="12.2"/><rect class="cls-4" x="6985.43" y="87.74" width="12.2" height="12.2"/></g><g><rect class="cls-4" x="6856.16" y="119.76" width="12.2" height="12.2"/><rect class="cls-4" x="6874.63" y="119.76" width="12.2" height="12.2"/><rect class="cls-4" x="6893.09" y="119.76" width="12.2" height="12.2"/><rect class="cls-4" x="6911.56" y="119.76" width="12.2" height="12.2"/><rect class="cls-4" x="6930.03" y="119.76" width="12.2" height="12.2"/><rect class="cls-4" x="6948.49" y="119.76" width="12.2" height="12.2"/><rect class="cls-4" x="6966.96" y="119.76" width="12.2" height="12.2"/><rect class="cls-4" x="6985.43" y="119.76" width="12.2" height="12.2"/></g><g><rect class="cls-4" x="6856.16" y="149.73" width="12.2" height="12.2"/><rect class="cls-4" x="6874.63" y="149.73" width="12.2" height="12.2"/><rect class="cls-4" x="6893.09" y="149.73" width="12.2" height="12.2"/><rect class="cls-4" x="6911.56" y="149.73" width="12.2" height="12.2"/><rect class="cls-4" x="6930.03" y="149.73" width="12.2" height="12.2"/><rect class="cls-4" x="6948.49" y="149.73" width="12.2" height="12.2"/><rect class="cls-4" x="6966.96" y="149.73" width="12.2" height="12.2"/><rect class="cls-4" x="6985.43" y="149.73" width="12.2" height="12.2"/></g></g><g><rect class="cls-1" x="6762.53" y="29.1" width="118.72" height="7.45"/><rect class="cls-3" x="6759.73" y="27.76" width="124.32" height="3.43"/><rect class="cls-1" x="6736.21" y="38.07" width="171.36" height="365.33"/><rect class="cls-1" x="6736.21" y="81.43" width="171.36" height="365.33"/><rect class="cls-3" x="6734.82" y="35.45" width="174.15" height="5.12"/><g><rect class="cls-2" x="6746.06" y="221.6" width="13.07" height="13.07"/><rect class="cls-2" x="6765.86" y="221.6" width="13.07" height="13.07"/><rect class="cls-2" x="6785.66" y="221.6" width="13.07" height="13.07"/><rect class="cls-2" x="6805.46" y="221.6" width="13.07" height="13.07"/><rect class="cls-2" x="6825.25" y="221.6" width="13.07" height="13.07"/><rect class="cls-2" x="6845.05" y="221.6" width="13.07" height="13.07"/><rect class="cls-2" x="6864.85" y="221.6" width="13.07" height="13.07"/><rect class="cls-2" x="6884.65" y="221.6" width="13.07" height="13.07"/></g><g><rect class="cls-2" x="6746.06" y="255.92" width="13.07" height="13.07"/><rect class="cls-2" x="6765.86" y="255.92" width="13.07" height="13.07"/><rect class="cls-2" x="6785.66" y="255.92" width="13.07" height="13.07"/><rect class="cls-2" x="6805.46" y="255.92" width="13.07" height="13.07"/><rect class="cls-2" x="6825.25" y="255.92" width="13.07" height="13.07"/><rect class="cls-2" x="6845.05" y="255.92" width="13.07" height="13.07"/><rect class="cls-2" x="6864.85" y="255.92" width="13.07" height="13.07"/><rect class="cls-2" x="6884.65" y="255.92" width="13.07" height="13.07"/></g><g><rect class="cls-2" x="6746.06" y="290.24" width="13.07" height="13.07"/><rect class="cls-2" x="6765.86" y="290.24" width="13.07" height="13.07"/><rect class="cls-2" x="6785.66" y="290.24" width="13.07" height="13.07"/><rect class="cls-2" x="6805.46" y="290.24" width="13.07" height="13.07"/><rect class="cls-2" x="6825.25" y="290.24" width="13.07" height="13.07"/><rect class="cls-2" x="6845.05" y="290.24" width="13.07" height="13.07"/><rect class="cls-2" x="6864.85" y="290.24" width="13.07" height="13.07"/><rect class="cls-2" x="6884.65" y="290.24" width="13.07" height="13.07"/></g><g><rect class="cls-2" x="6746.06" y="323.79" width="13.07" height="13.07"/><rect class="cls-2" x="6765.86" y="323.79" width="13.07" height="13.07"/><rect class="cls-2" x="6785.66" y="323.79" width="13.07" height="13.07"/><rect class="cls-2" x="6805.46" y="323.79" width="13.07" height="13.07"/><rect class="cls-2" x="6825.25" y="323.79" width="13.07" height="13.07"/><rect class="cls-2" x="6845.05" y="323.79" width="13.07" height="13.07"/><rect class="cls-2" x="6864.85" y="323.79" width="13.07" height="13.07"/><rect class="cls-2" x="6884.65" y="323.79" width="13.07" height="13.07"/></g><g><rect class="cls-2" x="6746.06" y="358.11" width="13.07" height="13.07"/><rect class="cls-2" x="6765.86" y="358.11" width="13.07" height="13.07"/><rect class="cls-2" x="6785.66" y="358.11" width="13.07" height="13.07"/><rect class="cls-2" x="6805.46" y="358.11" width="13.07" height="13.07"/><rect class="cls-2" x="6825.25" y="358.11" width="13.07" height="13.07"/><rect class="cls-2" x="6845.05" y="358.11" width="13.07" height="13.07"/><rect class="cls-2" x="6864.85" y="358.11" width="13.07" height="13.07"/><rect class="cls-2" x="6884.65" y="358.11" width="13.07" height="13.07"/></g><g><rect class="cls-2" x="6746.06" y="53.18" width="13.07" height="13.07"/><rect class="cls-2" x="6765.86" y="53.18" width="13.07" height="13.07"/><rect class="cls-2" x="6785.66" y="53.18" width="13.07" height="13.07"/><rect class="cls-2" x="6805.46" y="53.18" width="13.07" height="13.07"/><rect class="cls-2" x="6825.25" y="53.18" width="13.07" height="13.07"/><rect class="cls-2" x="6845.05" y="53.18" width="13.07" height="13.07"/><rect class="cls-2" x="6864.85" y="53.18" width="13.07" height="13.07"/><rect class="cls-2" x="6884.65" y="53.18" width="13.07" height="13.07"/></g><g><rect class="cls-2" x="6746.06" y="87.5" width="13.07" height="13.07"/><rect class="cls-2" x="6765.86" y="87.5" width="13.07" height="13.07"/><rect class="cls-2" x="6785.66" y="87.5" width="13.07" height="13.07"/><rect class="cls-2" x="6805.46" y="87.5" width="13.07" height="13.07"/><rect class="cls-2" x="6825.25" y="87.5" width="13.07" height="13.07"/><rect class="cls-2" x="6845.05" y="87.5" width="13.07" height="13.07"/><rect class="cls-2" x="6864.85" y="87.5" width="13.07" height="13.07"/><rect class="cls-2" x="6884.65" y="87.5" width="13.07" height="13.07"/></g><g><rect class="cls-2" x="6746.06" y="121.82" width="13.07" height="13.07"/><rect class="cls-2" x="6765.86" y="121.82" width="13.07" height="13.07"/><rect class="cls-2" x="6785.66" y="121.82" width="13.07" height="13.07"/><rect class="cls-2" x="6805.46" y="121.82" width="13.07" height="13.07"/><rect class="cls-2" x="6825.25" y="121.82" width="13.07" height="13.07"/><rect class="cls-2" x="6845.05" y="121.82" width="13.07" height="13.07"/><rect class="cls-2" x="6864.85" y="121.82" width="13.07" height="13.07"/><rect class="cls-2" x="6884.65" y="121.82" width="13.07" height="13.07"/></g><g><rect class="cls-2" x="6746.06" y="156.15" width="13.07" height="13.07"/><rect class="cls-2" x="6765.86" y="156.15" width="13.07" height="13.07"/><rect class="cls-2" x="6785.66" y="156.15" width="13.07" height="13.07"/><rect class="cls-2" x="6805.46" y="156.15" width="13.07" height="13.07"/><rect class="cls-2" x="6825.25" y="156.15" width="13.07" height="13.07"/><rect class="cls-2" x="6845.05" y="156.15" width="13.07" height="13.07"/><rect class="cls-2" x="6864.85" y="156.15" width="13.07" height="13.07"/><rect class="cls-2" x="6884.65" y="156.15" width="13.07" height="13.07"/></g><g><rect class="cls-2" x="6746.06" y="188.28" width="13.07" height="13.07"/><rect class="cls-2" x="6765.86" y="188.28" width="13.07" height="13.07"/><rect class="cls-2" x="6785.66" y="188.28" width="13.07" height="13.07"/><rect class="cls-2" x="6805.46" y="188.28" width="13.07" height="13.07"/><rect class="cls-2" x="6825.25" y="188.28" width="13.07" height="13.07"/><rect class="cls-2" x="6845.05" y="188.28" width="13.07" height="13.07"/><rect class="cls-2" x="6864.85" y="188.28" width="13.07" height="13.07"/><rect class="cls-2" x="6884.65" y="188.28" width="13.07" height="13.07"/></g></g><g><rect class="cls-3" x="4198.29" y="70.91" width="118.72" height="7.45"/><rect class="cls-3" x="4195.49" y="69.57" width="124.32" height="3.43"/><rect class="cls-3" x="4171.97" y="79.88" width="171.36" height="365.33"/><rect class="cls-3" x="4170.57" y="77.25" width="174.15" height="5.12"/><g><rect class="cls-4" x="4181.82" y="263.4" width="13.07" height="13.07"/><rect class="cls-4" x="4201.62" y="263.4" width="13.07" height="13.07"/><rect class="cls-4" x="4221.42" y="263.4" width="13.07" height="13.07"/><rect class="cls-4" x="4241.21" y="263.4" width="13.07" height="13.07"/><rect class="cls-4" x="4261.01" y="263.4" width="13.07" height="13.07"/><rect class="cls-4" x="4280.81" y="263.4" width="13.07" height="13.07"/><rect class="cls-4" x="4300.6" y="263.4" width="13.07" height="13.07"/><rect class="cls-4" x="4320.4" y="263.4" width="13.07" height="13.07"/></g><g><rect class="cls-4" x="4181.82" y="297.73" width="13.07" height="13.07"/><rect class="cls-4" x="4201.62" y="297.73" width="13.07" height="13.07"/><rect class="cls-4" x="4221.42" y="297.73" width="13.07" height="13.07"/><rect class="cls-4" x="4241.21" y="297.73" width="13.07" height="13.07"/><rect class="cls-4" x="4261.01" y="297.73" width="13.07" height="13.07"/><rect class="cls-4" x="4280.81" y="297.73" width="13.07" height="13.07"/><rect class="cls-4" x="4300.6" y="297.73" width="13.07" height="13.07"/><rect class="cls-4" x="4320.4" y="297.73" width="13.07" height="13.07"/></g><g><rect class="cls-4" x="4181.82" y="332.05" width="13.07" height="13.07"/><rect class="cls-4" x="4201.62" y="332.05" width="13.07" height="13.07"/><rect class="cls-4" x="4221.42" y="332.05" width="13.07" height="13.07"/><rect class="cls-4" x="4241.21" y="332.05" width="13.07" height="13.07"/><rect class="cls-4" x="4261.01" y="332.05" width="13.07" height="13.07"/><rect class="cls-4" x="4280.81" y="332.05" width="13.07" height="13.07"/><rect class="cls-4" x="4300.6" y="332.05" width="13.07" height="13.07"/><rect class="cls-4" x="4320.4" y="332.05" width="13.07" height="13.07"/></g><g><rect class="cls-4" x="4181.82" y="365.6" width="13.07" height="13.07"/><rect class="cls-4" x="4201.62" y="365.6" width="13.07" height="13.07"/><rect class="cls-4" x="4221.42" y="365.6" width="13.07" height="13.07"/><rect class="cls-4" x="4241.21" y="365.6" width="13.07" height="13.07"/><rect class="cls-4" x="4261.01" y="365.6" width="13.07" height="13.07"/><rect class="cls-4" x="4280.81" y="365.6" width="13.07" height="13.07"/><rect class="cls-4" x="4300.6" y="365.6" width="13.07" height="13.07"/><rect class="cls-4" x="4320.4" y="365.6" width="13.07" height="13.07"/></g><g><rect class="cls-4" x="4181.82" y="399.92" width="13.07" height="13.07"/><rect class="cls-4" x="4201.62" y="399.92" width="13.07" height="13.07"/><rect class="cls-4" x="4221.42" y="399.92" width="13.07" height="13.07"/><rect class="cls-4" x="4241.21" y="399.92" width="13.07" height="13.07"/><rect class="cls-4" x="4261.01" y="399.92" width="13.07" height="13.07"/><rect class="cls-4" x="4280.81" y="399.92" width="13.07" height="13.07"/><rect class="cls-4" x="4300.6" y="399.92" width="13.07" height="13.07"/><rect class="cls-4" x="4320.4" y="399.92" width="13.07" height="13.07"/></g><g><rect class="cls-4" x="4181.82" y="94.99" width="13.07" height="13.07"/><rect class="cls-4" x="4201.62" y="94.99" width="13.07" height="13.07"/><rect class="cls-4" x="4221.42" y="94.99" width="13.07" height="13.07"/><rect class="cls-4" x="4241.21" y="94.99" width="13.07" height="13.07"/><rect class="cls-4" x="4261.01" y="94.99" width="13.07" height="13.07"/><rect class="cls-4" x="4280.81" y="94.99" width="13.07" height="13.07"/><rect class="cls-4" x="4300.6" y="94.99" width="13.07" height="13.07"/><rect class="cls-4" x="4320.4" y="94.99" width="13.07" height="13.07"/></g><g><rect class="cls-4" x="4181.82" y="129.31" width="13.07" height="13.07"/><rect class="cls-4" x="4201.62" y="129.31" width="13.07" height="13.07"/><rect class="cls-4" x="4221.42" y="129.31" width="13.07" height="13.07"/><rect class="cls-4" x="4241.21" y="129.31" width="13.07" height="13.07"/><rect class="cls-4" x="4261.01" y="129.31" width="13.07" height="13.07"/><rect class="cls-4" x="4280.81" y="129.31" width="13.07" height="13.07"/><rect class="cls-4" x="4300.6" y="129.31" width="13.07" height="13.07"/><rect class="cls-4" x="4320.4" y="129.31" width="13.07" height="13.07"/></g><g><rect class="cls-4" x="4181.82" y="163.63" width="13.07" height="13.07"/><rect class="cls-4" x="4201.62" y="163.63" width="13.07" height="13.07"/><rect class="cls-4" x="4221.42" y="163.63" width="13.07" height="13.07"/><rect class="cls-4" x="4241.21" y="163.63" width="13.07" height="13.07"/><rect class="cls-4" x="4261.01" y="163.63" width="13.07" height="13.07"/><rect class="cls-4" x="4280.81" y="163.63" width="13.07" height="13.07"/><rect class="cls-4" x="4300.6" y="163.63" width="13.07" height="13.07"/><rect class="cls-4" x="4320.4" y="163.63" width="13.07" height="13.07"/></g><g><rect class="cls-4" x="4181.82" y="197.95" width="13.07" height="13.07"/><rect class="cls-4" x="4201.62" y="197.95" width="13.07" height="13.07"/><rect class="cls-4" x="4221.42" y="197.95" width="13.07" height="13.07"/><rect class="cls-4" x="4241.21" y="197.95" width="13.07" height="13.07"/><rect class="cls-4" x="4261.01" y="197.95" width="13.07" height="13.07"/><rect class="cls-4" x="4280.81" y="197.95" width="13.07" height="13.07"/><rect class="cls-4" x="4300.6" y="197.95" width="13.07" height="13.07"/><rect class="cls-4" x="4320.4" y="197.95" width="13.07" height="13.07"/></g><g><rect class="cls-4" x="4181.82" y="230.08" width="13.07" height="13.07"/><rect class="cls-4" x="4201.62" y="230.08" width="13.07" height="13.07"/><rect class="cls-4" x="4221.42" y="230.08" width="13.07" height="13.07"/><rect class="cls-4" x="4241.21" y="230.08" width="13.07" height="13.07"/><rect class="cls-4" x="4261.01" y="230.08" width="13.07" height="13.07"/><rect class="cls-4" x="4280.81" y="230.08" width="13.07" height="13.07"/><rect class="cls-4" x="4300.6" y="230.08" width="13.07" height="13.07"/><rect class="cls-4" x="4320.4" y="230.08" width="13.07" height="13.07"/></g></g><g><path class="cls-3" d="M4489.82,168.53l17.34-13.68c1.18-.93,2.79-.93,3.97,0l17.34,13.68v131.32h-38.65s0-131.32,0-131.32Z"/><rect class="cls-3" x="4527.84" y="177.13" width="27.32" height="121.17"/><rect class="cls-3" x="4537.32" y="161.9" width="12.33" height="19.73"/><rect class="cls-3" x="4461.23" y="192.98" width="28.66" height="100.41"/><rect class="cls-3" x="4435.25" y="171.88" width="25.99" height="126.94"/><rect class="cls-3" x="4415.6" y="153.28" width="20.35" height="143.98"/><rect class="cls-3" x="4360.87" y="178.13" width="24.64" height="115.91"/><rect class="cls-3" x="4339.55" y="191.89" width="21.32" height="97.58"/><polygon class="cls-3" points="4385.51 201.27 4415.93 187.57 4415.93 289.51 4385.51 289.51 4385.51 201.27"/></g><path class="cls-1" d="M7077.21,351.07c9.14-2.4,17.54-12.15,22-28.7,6.57-24.35,4.29-49.05-.65-73.42-4.01-19.78-9.25-38.63-16.31-56.05-5.56-13.71-10.54-15.13-18.61-5.47-1.59,1.9-3.33,3.57-4.7,5.83-10.34,17.04-18.19,36.47-21.32,60.29-3.57,27.13,1.2,60.68,12.71,81.37,7.46,13.41,17.56,18.61,26.88,16.15Z"/><path class="cls-1" d="M7112.7,286.16c4.72-1.36,9.06-6.87,11.36-16.23,3.39-13.77,2.21-27.73-.33-41.5-2.07-11.18-4.78-21.83-8.42-31.68-2.87-7.75-5.44-8.55-9.61-3.09-.82,1.07-1.72,2.02-2.43,3.29-5.34,9.63-9.39,20.62-11.01,34.08-1.84,15.33,.62,34.3,6.56,46,3.85,7.58,9.06,10.52,13.88,9.13Z"/><path class="cls-1" d="M7167.26,347.71c-9.14-2.4-17.54-12.15-22-28.7-6.57-24.35-4.29-49.05,.65-73.42,4.01-19.78,9.25-38.63,16.31-56.05,5.56-13.71,10.54-15.13,18.61-5.47,1.59,1.9,3.33,3.57,4.7,5.83,10.34,17.04,18.19,36.47,21.32,60.29,3.57,27.13-1.2,60.68-12.71,81.37-7.46,13.41-17.56,18.61-26.88,16.15Z"/><path class="cls-1" d="M7120.01,326.1c9.74-1.36,18.7-6.87,23.45-16.23,7-13.77,4.57-27.73-.69-41.5-4.27-11.18-9.86-21.83-17.38-31.68-5.92-7.75-11.23-8.55-19.84-3.09-1.69,1.07-3.55,2.02-5.01,3.29-11.03,9.63-19.39,20.62-22.73,34.08-3.8,15.33,1.28,34.3,13.54,46,7.95,7.58,18.72,10.52,28.66,9.13Z"/><path class="cls-1" d="M7131.13,279.41c-4.09-.96-7.85-4.84-9.84-11.44-2.94-9.7-1.92-19.54,.29-29.25,1.79-7.88,4.14-15.39,7.3-22.33,2.49-5.46,4.71-6.03,8.33-2.18,.71,.76,1.49,1.42,2.1,2.32,4.63,6.79,8.14,14.53,9.54,24.02,1.6,10.81-.54,24.18-5.68,32.42-3.34,5.34-7.86,7.41-12.03,6.44Z"/><path class="cls-1" d="M4939.07,341.79c-8.32-3.25-15.97-16.45-20.03-38.86-5.98-32.97-3.9-66.41,.59-99.39,3.65-26.78,8.42-52.29,14.85-75.88,5.06-18.57,9.59-20.48,16.95-7.41,1.45,2.57,3.03,4.83,4.28,7.89,9.42,23.06,16.56,49.38,19.41,81.62,3.25,36.72-1.09,82.16-11.57,110.16-6.79,18.15-15.98,25.19-24.48,21.87Z"/><path class="cls-1" d="M5005.82,323.78c9.14-2.4,17.54-12.15,22-28.7,6.57-24.35,4.29-49.05-.65-73.42-4.01-19.78-9.25-38.63-16.31-56.05-5.56-13.71-10.54-15.13-18.61-5.47-1.59,1.9-3.33,3.57-4.7,5.83-10.34,17.04-18.19,36.47-21.32,60.29-3.57,27.13,1.2,60.68,12.71,81.37,7.46,13.41,17.56,18.61,26.88,16.15Z"/><path class="cls-1" d="M4905.73,236.02c-3.65-.73-7.01-3.71-8.79-8.77-2.62-7.44-1.71-14.99,.26-22.43,1.6-6.04,3.7-11.8,6.51-17.12,2.22-4.19,4.21-4.62,7.44-1.67,.63,.58,1.33,1.09,1.88,1.78,4.13,5.2,7.27,11.14,8.52,18.42,1.43,8.29-.48,18.54-5.08,24.86-2.98,4.1-7.01,5.68-10.74,4.93Z"/><path class="cls-1" d="M5209.18,279.63c6.1-1.57,11.7-7.92,14.68-18.71,4.38-15.88,2.86-31.98-.43-47.86-2.67-12.89-6.17-25.18-10.88-36.53-3.71-8.94-7.03-9.86-12.42-3.57-1.06,1.24-2.22,2.33-3.14,3.8-6.9,11.1-12.14,23.78-14.23,39.3-2.38,17.68,.8,39.56,8.48,53.04,4.98,8.74,11.71,12.13,17.94,10.53Z"/><path class="cls-1" d="M5053.07,302.18c-9.74-1.36-18.7-6.87-23.45-16.23-7-13.77-4.57-27.73,.69-41.5,4.27-11.18,9.86-21.83,17.38-31.68,5.92-7.75,11.23-8.55,19.84-3.09,1.69,1.07,3.55,2.02,5.01,3.29,11.03,9.63,19.39,20.62,22.73,34.08,3.8,15.33-1.28,34.3-13.54,46-7.95,7.58-18.72,10.52-28.66,9.13Z"/><path class="cls-1" d="M5335.05,285.45c5.94-1.55,11.4-7.82,14.3-18.47,4.27-15.68,2.79-31.57-.42-47.25-2.6-12.73-6.01-24.86-10.6-36.07-3.61-8.83-6.85-9.74-12.1-3.52-1.03,1.22-2.16,2.3-3.06,3.75-6.72,10.96-11.82,23.48-13.86,38.8-2.32,17.46,.78,39.06,8.26,52.37,4.85,8.63,11.41,11.98,17.47,10.4Z"/><path class="cls-1" d="M5041.95,255.48c4.09-.96,7.85-4.84,9.84-11.44,2.94-9.7,1.92-19.54-.29-29.25-1.79-7.88-4.14-15.39-7.3-22.33-2.49-5.46-4.71-6.03-8.33-2.18-.71,.76-1.49,1.42-2.1,2.32-4.63,6.79-8.14,14.53-9.54,24.02-1.6,10.81,.54,24.18,5.68,32.42,3.34,5.34,7.86,7.41,12.03,6.44Z"/><rect class="cls-1" x="3.31" y="443.26" width="7534.22" height="57.4"/><rect class="cls-1" x="1.55" y="218.86" width="210.66" height="235.35"/><path class="cls-1" d="M67.98,309.48c-15.69-2.33-30.12-11.8-37.78-27.87-11.27-23.65-7.36-47.64,1.11-71.29,6.88-19.21,15.89-37.51,28-54.42,9.54-13.32,18.1-14.69,31.96-5.31,2.73,1.85,5.72,3.46,8.08,5.66,17.76,16.54,31.24,35.42,36.62,58.55,6.13,26.34-2.06,58.93-21.82,79.01-12.81,13.02-30.15,18.07-46.17,15.69Z"/><path class="cls-1" d="M792.04,476.66l-200.56-2.32,58.07-180.73c22.44-76.3,31.9-71.24,71.24-71.24l19.33-15.9c39.35,0,51.91,47.79,51.91,87.14v183.05Z"/><rect class="cls-3" x="3506.38" y="204.92" width="211.29" height="236.34"/><rect class="cls-3" x="4340.96" y="204.92" width="231.99" height="236.73"/><rect class="cls-1" x="4743.48" y="245.95" width="821.84" height="253.93"/><rect class="cls-1" x="7008.21" y="284.66" width="173.85" height="169.56"/></g></svg>