<?xml version="1.0" encoding="UTF-8"?><svg id="Layer_1" xmlns="http://www.w3.org/2000/svg" viewBox="0 0 1028.9 531.87"><defs><style>.cls-1,.cls-2,.cls-3{fill:none;}.cls-2{stroke:#fff;stroke-width:.56px;}.cls-2,.cls-3{stroke-miterlimit:10;}.cls-3{stroke:#c2d175;stroke-linecap:round;stroke-width:1.42px;}.cls-4{fill:#003c57;}.cls-5{fill:#f29bc2;}.cls-6{fill:#e95195;}.cls-7{fill:#f4f3f3;}.cls-8{fill:#f6b9d4;}.cls-9{fill:#e8eff4;}.cls-10{fill:#edf1f3;}.cls-11{fill:#ef85b4;}.cls-12{fill:#fff;}.cls-13{fill:#e5ebee;}.cls-14{fill:#fce6ef;}.cls-15{fill:#eff4f8;}.cls-16{fill:#00a3a6;}.cls-17{fill:#902082;}.cls-18{fill:#b7c8d0;}.cls-19{fill:#92b1cb;}.cls-20{fill:#b1afd2;}.cls-21{fill:#a6bfd5;}.cls-22{fill:#c0d2e1;}.cls-23{fill:#cccbe2;}.cls-24{fill:#dce5b0;}.cls-25{fill:#d3a6cd;}.cls-26{fill:#b163a7;}.cls-27{fill:#df0667;}.cls-28{fill:#206095;}.cls-29{fill:#99dadb;}.cls-30{fill:#6390b5;}.cls-31{fill:#628fb5;}.cls-32{fill:#4c7689;}.cls-33{fill:#7674b0;}.cls-34{fill:#4dbfc1;}</style></defs><path class="cls-9" d="M992.52,570.16c0-206.38,222.72-373.68,497.45-373.68s497.45,167.3,497.45,373.68"/><path class="cls-9" d="M704.19,401.24c-15.39-3.51-29.54-17.74-37.06-41.91-11.06-35.56-7.22-71.62,1.09-107.19,6.75-28.88,15.58-56.4,27.47-81.83,9.36-20.02,17.75-22.09,31.35-7.99,2.68,2.77,5.61,5.21,7.92,8.51,17.42,24.87,30.64,53.25,35.91,88.03,6.01,39.6-2.02,88.6-21.4,118.8-12.57,19.58-29.57,27.17-45.28,23.58Z"/><g><path class="cls-22" d="M740.59,319.86h-3.96v106.33h2.14v-90h0v-12.68h0s0,0,0,0h0s0,0,0,0l1.82-2.29v-1.35m6.84,64.43v-1.49h25.55v1.49h-.78v24.36h.78v1.49h-25.55v-1.49h.78v-24.36h-.78m0-49.09v-1.49h25.55v1.49h-.78v24.36h.78v1.49h-25.55v-1.49h.78v-24.36h-.78m33.57,0v-1.49h25.55v1.49h-.78v24.36h.78v1.49h-25.55v-1.49h.78v-24.36h-.78m-15.36-15.34h-23.82v1.78l-1.72,2.16v17.21h0v85.18h42.09v-43.4h22.61v43.4h10.39v-106.33h-49.55"/><path class="cls-23" d="M819.34,319.87h-4.09v106.33h2.27v-90h0v-12.68h0s0,0,0,0h0s0,0,0,0l1.82-2.29v-1.35m6.12,64.42v-1.49h25.55v1.49h-.78v24.36h.78v1.49h-25.55v-1.49h.78v-24.36h-.78m0-49.09v-1.49h25.55v1.49h-.78v24.36h.78v1.49h-25.55v-1.49h.78v-24.36h-.78m33.57,0v-1.49h25.55v1.49h-.78v24.36h.78v1.49h-25.55v-1.49h.78v-24.36h-.78m34.55-15.34h-73.01v1.78l-1.72,2.16v17.21h0v85.18h41.37v-43.4h22.61v43.4h10.75v-106.33"/><path class="cls-18" d="M936.51,384.29v-1.49h25.55v1.49h-.78v24.36h.78v1.49h-25.55v-1.49h.78v-24.36h-.78m-33.57-49.09v-1.49h25.55v1.49h-.78v24.36h.78v1.49h-25.55v-1.49h.78v-24.36h-.78m33.57,0v-1.49h25.55v1.49h-.78v24.36h.78v1.49h-25.55v-1.49h.78v-24.36h-.78m30.1-15.34h-73.04v106.33h11.12v-43.4h22.61v43.4h41.03v-85.18h0v-17.21l-1.72-2.16v-1.78m5.51,0h-4.28v1.35l1.82,2.29h0s0,0,0,0h0v12.69h0v90h2.46v-106.33"/><polyline class="cls-31" points="948.43 296.76 877.82 296.76 831.84 296.76 761.23 296.76 736.25 315.76 775.46 315.76 775.46 315.76 973.41 315.76 948.43 296.76"/><path class="cls-12" d="M750.5,405.82v-8.81h8.81v8.81h-8.81m10.58,0v-8.81h8.81v8.81h-8.81m-10.58-10.55v-8.81h8.81v8.81h-8.81m10.58,0v-8.81h8.81v8.81h-8.81m11.11-10.98h-23.99v24.36h23.99v-24.36"/><polyline class="cls-15" points="772.97 408.65 772.19 408.65 748.2 408.65 747.43 408.65 747.43 410.14 772.97 410.14 772.97 408.65"/><polyline class="cls-15" points="772.97 382.8 747.43 382.8 747.43 384.29 748.2 384.29 772.19 384.29 772.97 384.29 772.97 382.8"/><polyline class="cls-32" points="759.32 386.45 750.5 386.45 750.5 395.27 759.32 395.27 759.32 386.45"/><polyline class="cls-32" points="769.89 386.45 761.08 386.45 761.08 395.27 769.89 395.27 769.89 386.45"/><polyline class="cls-32" points="759.32 397 750.5 397 750.5 405.82 759.32 405.82 759.32 397"/><polyline class="cls-32" points="769.89 397 761.08 397 761.08 405.82 769.89 405.82 769.89 397"/><polyline class="cls-31" points="765.53 318.89 736.47 318.89 736.47 319.86 736.63 319.86 740.59 319.86 740.59 319.85 741.81 319.85 741.81 319.86 765.64 319.86 765.64 319.87 815.18 319.87 815.24 319.87 819.34 319.87 819.34 319.85 820.56 319.85 820.56 319.87 893.57 319.87 966.61 319.87 966.61 319.85 967.84 319.85 967.84 319.87 972.12 319.87 972.5 319.87 972.5 318.89 765.53 318.89 765.53 318.89"/><path class="cls-12" d="M750.5,356.73v-8.81h8.81v8.81h-8.81m10.58,0v-8.81h8.81v8.81h-8.81m-10.58-10.55v-8.81h8.81v8.81h-8.81m10.58,0v-8.81h8.81v8.81h-8.81m11.11-10.98h-23.99v24.36h23.99v-24.36"/><polyline class="cls-15" points="772.97 359.56 772.19 359.56 748.2 359.56 747.43 359.56 747.43 361.05 772.97 361.05 772.97 359.56"/><polyline class="cls-15" points="772.97 333.71 747.43 333.71 747.43 335.2 748.2 335.2 772.19 335.2 772.97 335.2 772.97 333.71"/><polyline class="cls-32" points="759.32 337.36 750.5 337.36 750.5 346.18 759.32 346.18 759.32 337.36"/><polyline class="cls-32" points="769.89 337.36 761.08 337.36 761.08 346.18 769.89 346.18 769.89 337.36"/><polyline class="cls-32" points="759.32 347.91 750.5 347.91 750.5 356.73 759.32 356.73 759.32 347.91"/><polyline class="cls-32" points="769.89 347.91 761.08 347.91 761.08 356.73 769.89 356.73 769.89 347.91"/><path class="cls-12" d="M784.07,356.73v-8.81h8.81v8.81h-8.81m10.58,0v-8.81h8.81v8.81h-8.81m-10.58-10.55v-8.81h8.81v8.81h-8.81m10.58,0v-8.81h8.81v8.81h-8.81m11.11-10.98h-23.99v24.36h23.99v-24.36"/><polyline class="cls-15" points="806.54 359.56 805.76 359.56 781.77 359.56 780.99 359.56 780.99 361.05 806.54 361.05 806.54 359.56"/><polyline class="cls-15" points="806.54 333.71 780.99 333.71 780.99 335.2 781.77 335.2 805.76 335.2 806.54 335.2 806.54 333.71"/><polyline class="cls-32" points="792.88 337.36 784.07 337.36 784.07 346.18 792.88 346.18 792.88 337.36"/><polyline class="cls-32" points="803.46 337.36 794.65 337.36 794.65 346.18 803.46 346.18 803.46 337.36"/><polyline class="cls-32" points="792.88 347.91 784.07 347.91 784.07 356.73 792.88 356.73 792.88 347.91"/><polyline class="cls-32" points="803.46 347.91 794.65 347.91 794.65 356.73 803.46 356.73 803.46 347.91"/><path class="cls-12" d="M784.38,426.23v-41.16h18.2v41.16h-18.2m20.41-43.43h-22.61v43.43h22.61v-43.43"/><path class="cls-8" d="M792.67,394.2c.07,.38,.41,.67,.81,.68,.4,0,.74-.29,.81-.68-.21,.21-.49,.34-.81,.34s-.6-.13-.81-.34m-6.18,30.23v-15.28h5.5v15.28h-5.5m8.49,0v-15.28h5.5v15.28h-5.5m-5.4-17.16v-2.18h7.82v2.18h-7.82m2.82-13.53c-.03-.11-.05-.22-.05-.34,0-.63,.51-1.14,1.14-1.14s1.14,.51,1.14,1.14c0,.12-.02,.23-.05,.34,.03,.1,.04,.2,.04,.31h0c0,.63-.51,1.13-1.13,1.13-.63,0-1.13-.51-1.13-1.13,0-.11,.02-.21,.04-.31m-5.91,9.29v-15.28h5.5v15.28h-5.5m8.49,0v-15.28h5.5v15.28h-5.5m7.61-17.96h-18.2v41.16h18.2v-41.16"/><polyline class="cls-11" points="791.99 387.74 786.49 387.74 786.49 403.03 791.99 403.03 791.99 387.74"/><polyline class="cls-11" points="800.48 387.74 794.98 387.74 794.98 403.03 800.48 403.03 800.48 387.74"/><polyline class="cls-11" points="791.99 409.15 786.49 409.15 786.49 424.43 791.99 424.43 791.99 409.15"/><polyline class="cls-11" points="800.48 409.15 794.98 409.15 794.98 424.43 800.48 424.43 800.48 409.15"/><path class="cls-12" d="M790.04,406.86v-1.37s6.88,0,6.88,0v1.37s-6.88,0-6.88,0m7.35-1.77h-7.82v2.18h7.82v-2.18"/><polyline class="cls-10" points="796.93 405.49 790.03 405.49 790.04 406.86 796.94 406.86 796.93 405.49"/><path class="cls-10" d="M793.84,393.31c-.07,.13-.2,.22-.36,.22s-.29-.09-.36-.22c-.27,.13-.46,.42-.47,.74,0,.05,0,.1,.01,.15,.21,.21,.49,.34,.81,.34s.61-.13,.81-.34c0-.05,.01-.1,.01-.15h0c0-.33-.19-.61-.46-.74m-.36-1.05c-.63,0-1.14,.51-1.14,1.14,0,.12,.02,.23,.05,.34,.1-.35,.36-.63,.7-.75,.05-.16,.21-.28,.39-.28s.33,.12,.39,.28c.34,.12,.6,.4,.7,.75,.03-.11,.05-.22,.05-.34,0-.63-.51-1.14-1.14-1.14"/><path class="cls-12" d="M794.62,394.05h0m-1.52-1.06c-.34,.12-.6,.4-.7,.75-.03,.1-.04,.2-.04,.31,0,.63,.51,1.13,1.13,1.13,.63,0,1.13-.51,1.13-1.13h-.31c0,.05,0,.1-.01,.15-.07,.38-.41,.67-.81,.68-.4,0-.74-.29-.81-.68,0-.05-.01-.1-.01-.15,0-.33,.19-.61,.47-.74-.03-.06-.05-.12-.05-.19,0-.04,0-.09,.02-.13m.78,0s.02,.08,.02,.13c0,.07-.02,.14-.05,.19,.27,.13,.46,.42,.46,.74h.31c0-.11-.01-.21-.04-.31-.1-.35-.36-.63-.7-.75"/><path class="cls-12" d="M793.48,392.71c-.18,0-.33,.12-.39,.28-.01,.04-.02,.08-.02,.13,0,.07,.02,.14,.05,.19,.07,.13,.2,.22,.36,.22s.29-.09,.36-.22c.03-.06,.05-.12,.05-.19,0-.04,0-.09-.02-.13-.05-.16-.21-.28-.39-.28"/><path class="cls-12" d="M828.53,405.82v-8.81h8.81v8.81h-8.81m10.58,0v-8.81h8.81v8.81h-8.81m-10.58-10.55v-8.81h8.81v8.81h-8.81m10.58,0v-8.81h8.81v8.81h-8.81m11.11-10.98h-23.99v24.36h23.99v-24.36"/><polyline class="cls-15" points="851 408.65 850.22 408.65 826.23 408.65 825.45 408.65 825.45 410.14 851 410.14 851 408.65"/><polyline class="cls-15" points="851 382.8 825.45 382.8 825.45 384.29 826.23 384.29 850.22 384.29 851 384.29 851 382.8"/><polyline class="cls-32" points="837.35 386.45 828.53 386.45 828.53 395.27 837.35 395.27 837.35 386.45"/><polyline class="cls-32" points="847.92 386.45 839.11 386.45 839.11 395.27 847.92 395.27 847.92 386.45"/><polyline class="cls-32" points="837.35 397 828.53 397 828.53 405.82 837.35 405.82 837.35 397"/><polyline class="cls-32" points="847.92 397 839.11 397 839.11 405.82 847.92 405.82 847.92 397"/><path class="cls-12" d="M828.53,356.73v-8.81h8.81v8.81h-8.81m10.58,0v-8.81h8.81v8.81h-8.81m-10.58-10.55v-8.81h8.81v8.81h-8.81m10.58,0v-8.81h8.81v8.81h-8.81m11.11-10.98h-23.99v24.36h23.99v-24.36"/><polyline class="cls-15" points="851 359.56 850.22 359.56 826.23 359.56 825.45 359.56 825.45 361.05 851 361.05 851 359.56"/><polyline class="cls-15" points="851 333.71 825.45 333.71 825.45 335.2 826.23 335.2 850.22 335.2 851 335.2 851 333.71"/><polyline class="cls-32" points="837.35 337.36 828.53 337.36 828.53 346.18 837.35 346.18 837.35 337.36"/><polyline class="cls-32" points="847.92 337.36 839.11 337.36 839.11 346.18 847.92 346.18 847.92 337.36"/><polyline class="cls-32" points="837.35 347.91 828.53 347.91 828.53 356.73 837.35 356.73 837.35 347.91"/><polyline class="cls-32" points="847.92 347.91 839.11 347.91 839.11 356.73 847.92 356.73 847.92 347.91"/><path class="cls-12" d="M862.1,356.73v-8.81h8.81v8.81h-8.81m10.58,0v-8.81h8.81v8.81h-8.81m-10.58-10.55v-8.81h8.81v8.81h-8.81m10.58,0v-8.81h8.81v8.81h-8.81m11.11-10.98h-23.99v24.36h23.99v-24.36"/><polyline class="cls-15" points="884.57 359.56 883.79 359.56 859.8 359.56 859.02 359.56 859.02 361.05 884.57 361.05 884.57 359.56"/><polyline class="cls-15" points="884.57 333.71 859.02 333.71 859.02 335.2 859.8 335.2 883.79 335.2 884.57 335.2 884.57 333.71"/><polyline class="cls-32" points="870.91 337.36 862.1 337.36 862.1 346.18 870.91 346.18 870.91 337.36"/><polyline class="cls-32" points="881.49 337.36 872.67 337.36 872.67 346.18 881.49 346.18 881.49 337.36"/><polyline class="cls-32" points="870.91 347.91 862.1 347.91 862.1 356.73 870.91 356.73 870.91 347.91"/><polyline class="cls-32" points="881.49 347.91 872.67 347.91 872.67 356.73 881.49 356.73 881.49 347.91"/><path class="cls-12" d="M862.41,426.23v-41.16h18.2v41.16h-18.2m20.41-43.43h-22.61v43.43h22.61v-43.43"/><path class="cls-8" d="M870.7,394.2c.07,.38,.41,.67,.81,.68,.4,0,.74-.29,.81-.68-.21,.21-.49,.34-.81,.34s-.6-.13-.81-.34m-6.18,30.23v-15.28h5.5v15.28h-5.5m8.49,0v-15.28h5.5v15.28h-5.5m-5.4-17.16v-2.18h7.82v2.18h-7.82m2.82-13.53c-.03-.11-.05-.22-.05-.34,0-.63,.51-1.14,1.14-1.14s1.14,.51,1.14,1.14c0,.12-.02,.23-.05,.34,.03,.1,.04,.2,.04,.31h0c0,.63-.51,1.13-1.13,1.13-.63,0-1.13-.51-1.13-1.13,0-.11,.02-.21,.04-.31m-5.91,9.29v-15.28h5.5v15.28h-5.5m8.49,0v-15.28h5.5v15.28h-5.5m7.61-17.96h-18.2v41.16h18.2v-41.16"/><polyline class="cls-11" points="870.02 387.74 864.52 387.74 864.52 403.03 870.02 403.03 870.02 387.74"/><polyline class="cls-11" points="878.51 387.74 873 387.74 873 403.03 878.51 403.03 878.51 387.74"/><polyline class="cls-11" points="870.02 409.15 864.52 409.15 864.52 424.43 870.02 424.43 870.02 409.15"/><polyline class="cls-11" points="878.51 409.15 873 409.15 873 424.43 878.51 424.43 878.51 409.15"/><path class="cls-12" d="M868.07,406.86v-1.37s6.88,0,6.88,0v1.37s-6.88,0-6.88,0m7.35-1.77h-7.82v2.18h7.82v-2.18"/><polyline class="cls-10" points="874.95 405.49 868.06 405.49 868.07 406.86 874.96 406.86 874.95 405.49"/><path class="cls-10" d="M871.15,393.31c-.27,.13-.46,.42-.47,.74,0,.05,0,.1,.01,.15,.21,.21,.49,.34,.81,.34s.6-.13,.81-.34c0-.05,.01-.1,.01-.15h0c0-.33-.19-.61-.47-.74-.07,.13-.2,.22-.36,.22s-.29-.09-.36-.22m.36-1.05c-.63,0-1.14,.51-1.14,1.14,0,.12,.02,.23,.05,.34,.1-.35,.36-.63,.7-.75,.05-.16,.21-.28,.39-.28s.33,.12,.39,.28c.34,.12,.6,.4,.7,.75,.03-.11,.05-.22,.05-.34,0-.63-.51-1.14-1.14-1.14"/><path class="cls-12" d="M872.64,394.05h0m-1.52-1.06c-.34,.12-.6,.4-.7,.75-.03,.1-.04,.2-.04,.31,0,.63,.51,1.13,1.13,1.13,.63,0,1.13-.51,1.13-1.13h-.31c0,.05,0,.1-.01,.15-.07,.38-.41,.67-.81,.68-.4,0-.74-.29-.81-.68,0-.05-.01-.1-.01-.15,0-.33,.19-.61,.47-.74-.03-.06-.05-.12-.05-.19,0-.04,0-.09,.02-.13m.78,0s.02,.08,.02,.13c0,.07-.02,.14-.05,.19,.27,.13,.46,.42,.47,.74h.31c0-.11-.02-.21-.04-.31-.1-.35-.36-.63-.7-.75"/><path class="cls-12" d="M871.51,392.71c-.18,0-.33,.12-.39,.28-.01,.04-.02,.08-.02,.13,0,.07,.02,.14,.05,.19,.07,.13,.2,.22,.36,.22s.29-.09,.36-.22c.03-.06,.05-.12,.05-.19,0-.04,0-.09-.02-.13-.05-.16-.21-.28-.39-.28"/><path class="cls-12" d="M939.59,405.82v-8.81h8.81v8.81h-8.81m10.58,0v-8.81h8.81v8.81h-8.81m-10.58-10.55v-8.81h8.81v8.81h-8.81m10.58,0v-8.81h8.81v8.81h-8.81m11.11-10.98h-23.99v24.36h23.99v-24.36"/><polyline class="cls-15" points="962.06 408.65 961.28 408.65 937.29 408.65 936.51 408.65 936.51 410.14 962.06 410.14 962.06 408.65"/><polyline class="cls-15" points="962.06 382.8 936.51 382.8 936.51 384.29 937.29 384.29 961.28 384.29 962.06 384.29 962.06 382.8"/><polyline class="cls-32" points="958.98 386.45 950.17 386.45 950.17 395.27 958.98 395.27 958.98 386.45"/><polyline class="cls-32" points="948.4 386.45 939.59 386.45 939.59 395.27 948.4 395.27 948.4 386.45"/><polyline class="cls-32" points="958.98 397 950.17 397 950.17 405.82 958.98 405.82 958.98 397"/><polyline class="cls-32" points="948.4 397 939.59 397 939.59 405.82 948.4 405.82 948.4 397"/><path class="cls-12" d="M939.59,356.73v-8.81h8.81v8.81h-8.81m10.58,0v-8.81h8.81v8.81h-8.81m-10.58-10.55v-8.81h8.81v8.81h-8.81m10.58,0v-8.81h8.81v8.81h-8.81m11.11-10.98h-23.99v24.36h23.99v-24.36"/><polyline class="cls-15" points="962.06 359.56 961.28 359.56 937.29 359.56 936.51 359.56 936.51 361.05 962.06 361.05 962.06 359.56"/><polyline class="cls-15" points="962.06 333.71 936.51 333.71 936.51 335.2 937.29 335.2 961.28 335.2 962.06 335.2 962.06 333.71"/><polyline class="cls-32" points="958.98 337.36 950.17 337.36 950.17 346.18 958.98 346.18 958.98 337.36"/><polyline class="cls-32" points="948.4 337.36 939.59 337.36 939.59 346.18 948.4 346.18 948.4 337.36"/><polyline class="cls-32" points="958.98 347.91 950.17 347.91 950.17 356.73 958.98 356.73 958.98 347.91"/><polyline class="cls-32" points="948.4 347.91 939.59 347.91 939.59 356.73 948.4 356.73 948.4 347.91"/><path class="cls-12" d="M906.03,356.73v-8.81h8.81v8.81h-8.81m10.58,0v-8.81h8.81v8.81h-8.81m-10.58-10.55v-8.81h8.81v8.81h-8.81m10.58,0v-8.81h8.81v8.81h-8.81m11.11-10.98h-23.99v24.36h23.99v-24.36"/><polyline class="cls-15" points="928.49 359.56 927.71 359.56 903.72 359.56 902.95 359.56 902.95 361.05 928.49 361.05 928.49 359.56"/><polyline class="cls-15" points="928.49 333.71 902.95 333.71 902.95 335.2 903.72 335.2 927.71 335.2 928.49 335.2 928.49 333.71"/><polyline class="cls-32" points="925.41 337.36 916.6 337.36 916.6 346.18 925.41 346.18 925.41 337.36"/><polyline class="cls-32" points="914.84 337.36 906.03 337.36 906.03 346.18 914.84 346.18 914.84 337.36"/><polyline class="cls-32" points="925.41 347.91 916.6 347.91 916.6 356.73 925.41 356.73 925.41 347.91"/><polyline class="cls-32" points="914.84 347.91 906.03 347.91 906.03 356.73 914.84 356.73 914.84 347.91"/><path class="cls-12" d="M906.9,426.23v-41.16h18.2v41.16h-18.2m20.41-43.43h-22.61v43.43h22.61v-43.43"/><path class="cls-19" d="M915.19,394.2c.07,.38,.41,.67,.81,.68,.4,0,.74-.29,.81-.67-.21,.21-.49,.34-.81,.34s-.6-.13-.81-.34m-6.18,30.23v-15.28h5.5v15.28h-5.5m8.49,0v-15.28h5.5v15.28h-5.5m-5.4-17.16v-2.18h7.82v2.18h-7.82m2.82-13.53c-.03-.11-.05-.22-.05-.34,0-.63,.51-1.14,1.14-1.14s1.14,.51,1.14,1.14c0,.12-.02,.23-.05,.34,.03,.1,.04,.2,.04,.31,0,.63-.51,1.13-1.13,1.13-.63,0-1.13-.51-1.13-1.13h0c0-.11,.02-.21,.04-.31m-5.91,9.29v-15.28h5.5v15.28h-5.5m8.49,0v-15.28h5.5v15.28h-5.5m7.61-17.96h-18.2v41.16h18.2v-41.16"/><polyline class="cls-31" points="923 387.74 917.49 387.74 917.49 403.03 923 403.03 923 387.74"/><polyline class="cls-31" points="914.51 387.74 909 387.74 909 403.03 914.51 403.03 914.51 387.74"/><polyline class="cls-31" points="923 409.15 917.49 409.15 917.49 424.43 923 424.43 923 409.15"/><polyline class="cls-31" points="914.51 409.15 909 409.15 909 424.43 914.51 424.43 914.51 409.15"/><path class="cls-12" d="M919.45,405.49h0v1.37h-6.91v-1.37h6.91m.46-.41h-7.82v2.18h7.82v-2.18"/><polyline class="cls-10" points="919.45 405.49 912.56 405.49 912.55 406.86 919.44 406.86 919.45 405.49"/><path class="cls-10" d="M915.64,393.31c-.28,.13-.46,.42-.47,.74,0,.05,0,.1,.01,.15,.21,.21,.49,.34,.81,.34s.6-.13,.81-.34c0-.05,.01-.1,.01-.15,0-.33-.19-.61-.46-.74-.07,.13-.2,.22-.36,.22s-.29-.09-.36-.22m.36-1.05c-.63,0-1.14,.51-1.14,1.14,0,.12,.02,.23,.05,.34,.1-.35,.36-.63,.7-.75,.05-.16,.21-.28,.39-.28s.33,.12,.39,.28c.34,.12,.6,.4,.7,.75,.03-.11,.05-.22,.05-.34,0-.63-.51-1.14-1.14-1.14"/><path class="cls-12" d="M915.61,392.99c-.34,.12-.6,.4-.7,.75-.03,.1-.04,.2-.04,.31h0c0,.63,.51,1.13,1.13,1.13,.63,0,1.13-.51,1.13-1.13,0-.11-.01-.21-.04-.31-.1-.35-.36-.63-.7-.75,.01,.04,.02,.08,.02,.13,0,.07-.02,.14-.05,.19,.27,.13,.46,.42,.46,.74,0,.05,0,.1-.01,.15-.07,.38-.41,.67-.81,.67-.4,0-.74-.29-.81-.68,0-.05-.01-.1-.01-.15,0-.33,.19-.61,.47-.74-.03-.06-.05-.12-.05-.19,0-.04,0-.09,.02-.13"/><path class="cls-12" d="M916,392.71c-.18,0-.33,.12-.39,.28-.01,.04-.02,.08-.02,.13,0,.07,.02,.14,.05,.19,.07,.13,.2,.22,.36,.22s.29-.09,.36-.22c.03-.06,.05-.12,.05-.19,0-.04,0-.09-.02-.13-.05-.16-.21-.28-.39-.28"/><polyline class="cls-15" points="764.24 317.11 735.52 317.11 735.52 318.89 736.47 318.89 765.53 318.89 765.53 318.89 972.5 318.89 972.97 318.89 972.97 317.11 764.24 317.11 764.24 317.11"/><polyline class="cls-19" points="793.65 295.6 761.2 295.6 761.2 296.74 784.89 296.74 784.89 296.74 948.58 296.74 948.58 295.6 793.65 295.6 793.65 295.6"/><polyline class="cls-19" points="775.46 315.76 736.25 315.76 734.7 315.76 734.7 317.11 735.52 317.11 764.24 317.11 764.24 317.11 972.97 317.11 973.76 317.11 973.76 315.76 973.41 315.76 775.46 315.76 775.46 315.76"/><polyline class="cls-31" points="741.81 319.85 740.59 319.85 740.59 319.86 740.59 321.22 738.76 323.5 738.76 323.5 738.76 323.5 738.76 323.51 738.76 323.51 738.76 336.19 738.76 336.19 738.76 426.2 738.76 426.2 740.09 426.2 740.09 426.2 740.09 341.01 740.09 341.01 740.09 323.81 741.81 321.64 741.81 319.86 741.81 319.85"/><polyline class="cls-31" points="820.56 319.85 819.34 319.85 819.34 319.87 819.34 321.22 817.51 323.5 817.51 323.5 817.51 323.5 817.51 323.51 817.51 323.51 817.51 336.19 817.51 336.19 817.51 426.2 817.51 426.2 818.84 426.2 818.84 426.2 818.84 341.01 818.84 341.01 818.84 323.81 820.56 321.64 820.56 319.87 820.56 319.85"/><polyline class="cls-31" points="967.84 319.85 966.61 319.85 966.61 319.87 966.61 321.64 968.33 323.81 968.33 341.01 968.34 341.01 968.34 426.2 968.34 426.2 969.66 426.2 969.66 426.2 969.66 336.19 969.66 336.19 969.66 323.51 969.66 323.51 969.66 323.5 969.66 323.5 969.66 323.5 967.84 321.22 967.84 319.87 967.84 319.85"/></g><rect class="cls-13" x="813.83" y="425.93" width="120.55" height="24.47"/><path class="cls-34" d="M537.53,556.45c0-77.59,99.18-140.5,221.53-140.5s221.53,62.9,221.53,140.5"/><rect class="cls-34" x="8.29" y="421.96" width="803.93" height="133.69"/><path class="cls-9" d="M-23.69,427.97c-13.43-5.25-25.78-26.55-32.34-62.73-9.65-53.23-6.3-107.21,.95-160.46,5.89-43.24,13.6-84.42,23.97-122.5,8.17-29.98,15.49-33.07,27.36-11.96,2.34,4.15,4.9,7.8,6.91,12.73,15.2,37.23,26.74,79.72,31.34,131.77,5.24,59.29-1.76,132.63-18.68,177.84-10.97,29.31-25.81,40.67-39.52,35.3Z"/><path class="cls-9" d="M170.31,380.15c14.75-3.88,28.32-19.61,35.52-46.34,10.6-39.32,6.92-79.19-1.05-118.52-6.47-31.94-14.93-62.36-26.33-90.48-8.97-22.14-17.01-24.43-30.05-8.83-2.56,3.07-5.38,5.76-7.59,9.41-16.7,27.5-29.36,58.88-34.42,97.33-5.76,43.79,1.93,97.97,20.51,131.36,12.04,21.65,28.34,30.04,43.4,26.08Z"/><path class="cls-9" d="M661.73,286.77c6.6-1.55,12.67-7.81,15.89-18.46,4.74-15.67,3.1-31.55-.47-47.22-2.89-12.72-6.68-24.85-11.78-36.05-4.01-8.82-7.61-9.73-13.44-3.52-1.15,1.22-2.41,2.29-3.4,3.75-7.47,10.96-13.14,23.46-15.4,38.78-2.58,17.45,.86,39.03,9.18,52.34,5.39,8.63,12.68,11.97,19.42,10.39Z"/><g><g><rect class="cls-5" x="163.53" y="259.37" width="115.85" height="163.27"/><rect class="cls-29" x="279.47" y="259.37" width="115.85" height="163.27"/><rect class="cls-25" x="394.98" y="259.37" width="115.85" height="163.27"/><polygon class="cls-28" points="513.98 231.76 371.76 231.76 303.94 231.76 199.81 231.76 162.76 259.95 303.94 259.95 371.76 259.95 512.95 259.95 513.98 231.76"/><g><rect class="cls-12" x="180.6" y="358.65" width="35.38" height="39.29"/><rect class="cls-9" x="179.45" y="396.77" width="37.68" height="2.2"/><rect class="cls-9" x="179.45" y="358.65" width="37.68" height="2.2"/><g><rect class="cls-4" x="183.99" y="364.04" width="13" height="13"/><rect class="cls-4" x="199.59" y="364.04" width="13" height="13"/><rect class="cls-4" x="183.99" y="379.59" width="13" height="13"/><rect class="cls-4" x="199.59" y="379.59" width="13" height="13"/></g></g><polygon class="cls-28" points="222.64 263.84 222.64 263.84 163.29 263.84 163.29 265.83 206.31 265.83 206.31 265.83 511.39 265.83 511.39 263.84 222.64 263.84"/><g><rect class="cls-12" x="180.6" y="286.25" width="35.38" height="39.29"/><rect class="cls-9" x="179.45" y="324.37" width="37.68" height="2.2"/><rect class="cls-9" x="179.45" y="286.25" width="37.68" height="2.2"/><g><rect class="cls-4" x="183.99" y="291.64" width="13" height="13"/><rect class="cls-4" x="199.59" y="291.64" width="13" height="13"/><rect class="cls-4" x="183.99" y="307.2" width="13" height="13"/><rect class="cls-4" x="199.59" y="307.2" width="13" height="13"/></g></g><g><rect class="cls-12" x="230.1" y="286.25" width="35.38" height="39.29"/><rect class="cls-9" x="228.95" y="324.37" width="37.68" height="2.2"/><rect class="cls-9" x="228.95" y="286.25" width="37.68" height="2.2"/><g><rect class="cls-4" x="233.5" y="291.64" width="13" height="13"/><rect class="cls-4" x="249.09" y="291.64" width="13" height="13"/><rect class="cls-4" x="233.5" y="307.2" width="13" height="13"/><rect class="cls-4" x="249.09" y="307.2" width="13" height="13"/></g></g><g><rect class="cls-12" x="230.7" y="358.65" width="33.35" height="64.05"/><rect class="cls-5" x="233.96" y="361.99" width="26.84" height="60.71"/><g><rect class="cls-6" x="237.06" y="365.94" width="8.12" height="22.54"/><rect class="cls-6" x="249.58" y="365.94" width="8.12" height="22.54"/></g><g><rect class="cls-6" x="237.06" y="397.5" width="8.12" height="22.54"/><rect class="cls-6" x="249.58" y="397.5" width="8.12" height="22.54"/></g><rect class="cls-12" x="241.61" y="391.51" width="11.53" height="3.22"/><polygon class="cls-13" points="252.47 394.13 242.3 394.13 242.29 392.11 252.45 392.11 252.47 394.13"/><circle class="cls-13" cx="247.38" cy="374.28" r="1.68"/><circle class="cls-2" cx="247.38" cy="375.24" r="1.44"/><circle class="cls-12" cx="247.38" cy="373.86" r=".6"/></g><g><rect class="cls-12" x="295.67" y="358.65" width="35.38" height="39.29"/><rect class="cls-9" x="294.52" y="396.77" width="37.68" height="2.2"/><rect class="cls-9" x="294.52" y="358.65" width="37.68" height="2.2"/><g><rect class="cls-4" x="299.07" y="364.04" width="13" height="13"/><rect class="cls-4" x="314.66" y="364.04" width="13" height="13"/><rect class="cls-4" x="299.07" y="379.59" width="13" height="13"/><rect class="cls-4" x="314.66" y="379.59" width="13" height="13"/></g></g><g><rect class="cls-12" x="295.67" y="286.25" width="35.38" height="39.29"/><rect class="cls-9" x="294.52" y="324.37" width="37.68" height="2.2"/><rect class="cls-9" x="294.52" y="286.25" width="37.68" height="2.2"/><g><rect class="cls-4" x="299.07" y="291.64" width="13" height="13"/><rect class="cls-4" x="314.66" y="291.64" width="13" height="13"/><rect class="cls-4" x="299.07" y="307.2" width="13" height="13"/><rect class="cls-4" x="314.66" y="307.2" width="13" height="13"/></g></g><g><rect class="cls-12" x="345.18" y="286.25" width="35.38" height="39.29"/><rect class="cls-9" x="344.03" y="324.37" width="37.68" height="2.2"/><rect class="cls-9" x="344.03" y="286.25" width="37.68" height="2.2"/><g><rect class="cls-4" x="348.57" y="291.64" width="13" height="13"/><rect class="cls-4" x="364.17" y="291.64" width="13" height="13"/><rect class="cls-4" x="348.57" y="307.2" width="13" height="13"/><rect class="cls-4" x="364.17" y="307.2" width="13" height="13"/></g></g><g><rect class="cls-12" x="345.78" y="358.65" width="33.35" height="64.05"/><rect class="cls-20" x="349.03" y="361.99" width="26.84" height="60.71"/><g><rect class="cls-33" x="352.13" y="365.94" width="8.12" height="22.54"/><rect class="cls-33" x="364.65" y="365.94" width="8.12" height="22.54"/></g><g><rect class="cls-33" x="352.13" y="397.5" width="8.12" height="22.54"/><rect class="cls-33" x="364.65" y="397.5" width="8.12" height="22.54"/></g><rect class="cls-12" x="356.69" y="391.51" width="11.53" height="3.22"/><polygon class="cls-13" points="367.54 394.13 357.37 394.13 357.36 392.11 367.53 392.11 367.54 394.13"/><circle class="cls-13" cx="362.45" cy="374.28" r="1.68"/><circle class="cls-2" cx="362.45" cy="375.24" r="1.44"/><circle class="cls-12" cx="362.45" cy="373.86" r=".6"/></g><g><rect class="cls-12" x="459.46" y="358.65" width="35.38" height="39.29" transform="translate(954.3 756.58) rotate(-180)"/><rect class="cls-9" x="458.31" y="396.77" width="37.68" height="2.2" transform="translate(954.3 795.74) rotate(-180)"/><rect class="cls-9" x="458.31" y="358.65" width="37.68" height="2.2" transform="translate(954.3 719.49) rotate(-180)"/><g><rect class="cls-4" x="478.45" y="364.04" width="13" height="13" transform="translate(969.9 741.07) rotate(-180)"/><rect class="cls-4" x="462.85" y="364.04" width="13" height="13" transform="translate(938.7 741.07) rotate(-180)"/><rect class="cls-4" x="478.45" y="379.59" width="13" height="13" transform="translate(969.9 772.19) rotate(-180)"/><rect class="cls-4" x="462.85" y="379.59" width="13" height="13" transform="translate(938.7 772.19) rotate(-180)"/></g></g><g><rect class="cls-12" x="459.46" y="286.25" width="35.38" height="39.29" transform="translate(954.3 611.79) rotate(-180)"/><rect class="cls-9" x="458.31" y="324.37" width="37.68" height="2.2" transform="translate(954.3 650.95) rotate(-180)"/><rect class="cls-9" x="458.31" y="286.25" width="37.68" height="2.2" transform="translate(954.3 574.7) rotate(-180)"/><g><rect class="cls-4" x="478.45" y="291.64" width="13" height="13" transform="translate(969.9 596.28) rotate(-180)"/><rect class="cls-4" x="462.85" y="291.64" width="13" height="13" transform="translate(938.7 596.28) rotate(-180)"/><rect class="cls-4" x="478.45" y="307.2" width="13" height="13" transform="translate(969.9 627.39) rotate(-180)"/><rect class="cls-4" x="462.85" y="307.2" width="13" height="13" transform="translate(938.7 627.39) rotate(-180)"/></g></g><g><rect class="cls-12" x="409.96" y="286.25" width="35.38" height="39.29" transform="translate(855.29 611.79) rotate(-180)"/><rect class="cls-9" x="408.81" y="324.37" width="37.68" height="2.2" transform="translate(855.29 650.95) rotate(-180)"/><rect class="cls-9" x="408.81" y="286.25" width="37.68" height="2.2" transform="translate(855.29 574.7) rotate(-180)"/><g><rect class="cls-4" x="428.95" y="291.64" width="13" height="13" transform="translate(870.89 596.28) rotate(-180)"/><rect class="cls-4" x="413.35" y="291.64" width="13" height="13" transform="translate(839.7 596.28) rotate(-180)"/><rect class="cls-4" x="428.95" y="307.2" width="13" height="13" transform="translate(870.89 627.39) rotate(-180)"/><rect class="cls-4" x="413.35" y="307.2" width="13" height="13" transform="translate(839.7 627.39) rotate(-180)"/></g></g><g><rect class="cls-12" x="411.39" y="358.65" width="33.35" height="64.05" transform="translate(856.12 781.34) rotate(-180)"/><rect class="cls-29" x="414.64" y="361.99" width="26.84" height="60.71" transform="translate(856.12 784.69) rotate(-180)"/><g><rect class="cls-34" x="430.26" y="365.94" width="8.12" height="22.54" transform="translate(868.64 754.42) rotate(-180)"/><rect class="cls-34" x="417.74" y="365.94" width="8.12" height="22.54" transform="translate(843.61 754.42) rotate(-180)"/></g><g><rect class="cls-34" x="430.26" y="397.5" width="8.12" height="22.54" transform="translate(868.64 817.55) rotate(-180)"/><rect class="cls-34" x="417.74" y="397.5" width="8.12" height="22.54" transform="translate(843.61 817.55) rotate(-180)"/></g><rect class="cls-12" x="422.3" y="391.51" width="11.53" height="3.22" transform="translate(856.12 786.24) rotate(-180)"/><polygon class="cls-13" points="422.97 394.13 433.14 394.13 433.15 392.11 422.99 392.11 422.97 394.13"/><circle class="cls-13" cx="428.06" cy="374.28" r="1.68"/><circle class="cls-2" cx="428.06" cy="375.24" r="1.44"/><circle class="cls-12" cx="428.06" cy="373.86" r=".6"/></g><polygon class="cls-9" points="222.54 261.57 222.54 261.57 161.9 261.57 161.9 264.39 206.16 264.39 206.16 264.39 512.09 264.39 512.09 261.57 222.54 261.57"/><polygon class="cls-30" points="247.62 230.04 247.62 230.04 199.77 230.04 199.77 231.73 234.7 231.73 234.7 231.73 514.19 231.73 514.19 230.04 247.62 230.04"/><polygon class="cls-30" points="220.8 259.78 220.8 259.78 160.69 259.78 160.69 261.77 204.25 261.77 204.25 261.77 513.24 261.77 513.24 259.78 220.8 259.78"/></g><g><rect class="cls-33" x="510.91" y="259.37" width="115.85" height="163.27"/><rect class="cls-5" x="626.42" y="259.37" width="115.85" height="163.27"/><polygon class="cls-28" points="727.59 231.76 603.2 231.76 535.39 231.76 511.87 231.76 509.1 259.95 535.39 259.95 603.2 259.95 744.39 259.95 727.59 231.76"/><polygon class="cls-28" points="568.66 263.84 526.27 263.84 509.31 263.84 509.31 265.83 509.93 265.83 552.32 265.83 742.83 265.83 742.83 263.84 568.66 263.84"/><g><rect class="cls-12" x="527.12" y="358.65" width="35.38" height="39.29"/><rect class="cls-9" x="525.97" y="396.77" width="37.68" height="2.2"/><rect class="cls-9" x="525.97" y="358.65" width="37.68" height="2.2"/><g><rect class="cls-4" x="530.51" y="364.04" width="13" height="13"/><rect class="cls-4" x="546.11" y="364.04" width="13" height="13"/><rect class="cls-4" x="530.51" y="379.59" width="13" height="13"/><rect class="cls-4" x="546.11" y="379.59" width="13" height="13"/></g></g><g><rect class="cls-12" x="527.12" y="286.25" width="35.38" height="39.29"/><rect class="cls-9" x="525.97" y="324.37" width="37.68" height="2.2"/><rect class="cls-9" x="525.97" y="286.25" width="37.68" height="2.2"/><g><rect class="cls-4" x="530.51" y="291.64" width="13" height="13"/><rect class="cls-4" x="546.11" y="291.64" width="13" height="13"/><rect class="cls-4" x="530.51" y="307.2" width="13" height="13"/><rect class="cls-4" x="546.11" y="307.2" width="13" height="13"/></g></g><g><rect class="cls-12" x="576.62" y="286.25" width="35.38" height="39.29"/><rect class="cls-9" x="575.47" y="324.37" width="37.68" height="2.2"/><rect class="cls-9" x="575.47" y="286.25" width="37.68" height="2.2"/><g><rect class="cls-4" x="580.01" y="291.64" width="13" height="13"/><rect class="cls-4" x="595.61" y="291.64" width="13" height="13"/><rect class="cls-4" x="580.01" y="307.2" width="13" height="13"/><rect class="cls-4" x="595.61" y="307.2" width="13" height="13"/></g></g><g><rect class="cls-12" x="577.22" y="358.65" width="33.35" height="64.05"/><rect class="cls-5" x="580.47" y="361.99" width="26.84" height="60.71"/><g><rect class="cls-6" x="583.58" y="365.94" width="8.12" height="22.54"/><rect class="cls-6" x="596.09" y="365.94" width="8.12" height="22.54"/></g><g><rect class="cls-6" x="583.58" y="397.5" width="8.12" height="22.54"/><rect class="cls-6" x="596.09" y="397.5" width="8.12" height="22.54"/></g><rect class="cls-12" x="588.13" y="391.51" width="11.53" height="3.22"/><polygon class="cls-13" points="598.99 394.13 588.82 394.13 588.8 392.11 598.97 392.11 598.99 394.13"/><circle class="cls-13" cx="593.89" cy="374.28" r="1.68"/><circle class="cls-2" cx="593.89" cy="375.24" r="1.44"/><circle class="cls-12" cx="593.89" cy="373.86" r=".6"/></g><g><rect class="cls-12" x="690.9" y="358.65" width="35.38" height="39.29" transform="translate(1417.19 756.58) rotate(-180)"/><rect class="cls-9" x="689.76" y="396.77" width="37.68" height="2.2" transform="translate(1417.19 795.74) rotate(-180)"/><rect class="cls-9" x="689.76" y="358.65" width="37.68" height="2.2" transform="translate(1417.19 719.49) rotate(-180)"/><g><rect class="cls-4" x="709.89" y="364.04" width="13" height="13" transform="translate(1432.78 741.07) rotate(-180)"/><rect class="cls-4" x="694.3" y="364.04" width="13" height="13" transform="translate(1401.59 741.07) rotate(-180)"/><rect class="cls-4" x="709.89" y="379.59" width="13" height="13" transform="translate(1432.78 772.19) rotate(-180)"/><rect class="cls-4" x="694.3" y="379.59" width="13" height="13" transform="translate(1401.59 772.19) rotate(-180)"/></g></g><g><rect class="cls-12" x="690.9" y="286.25" width="35.38" height="39.29" transform="translate(1417.19 611.79) rotate(-180)"/><rect class="cls-9" x="689.76" y="324.37" width="37.68" height="2.2" transform="translate(1417.19 650.95) rotate(-180)"/><rect class="cls-9" x="689.76" y="286.25" width="37.68" height="2.2" transform="translate(1417.19 574.7) rotate(-180)"/><g><rect class="cls-4" x="709.89" y="291.64" width="13" height="13" transform="translate(1432.78 596.28) rotate(-180)"/><rect class="cls-4" x="694.3" y="291.64" width="13" height="13" transform="translate(1401.59 596.28) rotate(-180)"/><rect class="cls-4" x="709.89" y="307.2" width="13" height="13" transform="translate(1432.78 627.39) rotate(-180)"/><rect class="cls-4" x="694.3" y="307.2" width="13" height="13" transform="translate(1401.59 627.39) rotate(-180)"/></g></g><g><rect class="cls-12" x="641.4" y="286.25" width="35.38" height="39.29" transform="translate(1318.18 611.79) rotate(-180)"/><rect class="cls-9" x="640.25" y="324.37" width="37.68" height="2.2" transform="translate(1318.18 650.95) rotate(-180)"/><rect class="cls-9" x="640.25" y="286.25" width="37.68" height="2.2" transform="translate(1318.18 574.7) rotate(-180)"/><g><rect class="cls-4" x="660.39" y="291.64" width="13" height="13" transform="translate(1333.78 596.28) rotate(-180)"/><rect class="cls-4" x="644.79" y="291.64" width="13" height="13" transform="translate(1302.58 596.28) rotate(-180)"/><rect class="cls-4" x="660.39" y="307.2" width="13" height="13" transform="translate(1333.78 627.39) rotate(-180)"/><rect class="cls-4" x="644.79" y="307.2" width="13" height="13" transform="translate(1302.58 627.39) rotate(-180)"/></g></g><g><rect class="cls-12" x="642.83" y="358.65" width="33.35" height="64.05" transform="translate(1319.01 781.34) rotate(-180)"/><rect class="cls-25" x="646.08" y="361.99" width="26.84" height="60.71" transform="translate(1319.01 784.69) rotate(-180)"/><g><rect class="cls-26" x="661.71" y="365.94" width="8.12" height="22.54" transform="translate(1331.53 754.42) rotate(-180)"/><rect class="cls-26" x="649.19" y="365.94" width="8.12" height="22.54" transform="translate(1306.49 754.42) rotate(-180)"/></g><g><rect class="cls-26" x="661.71" y="397.5" width="8.12" height="22.54" transform="translate(1331.53 817.55) rotate(-180)"/><rect class="cls-26" x="649.19" y="397.5" width="8.12" height="22.54" transform="translate(1306.49 817.55) rotate(-180)"/></g><rect class="cls-12" x="653.74" y="391.51" width="11.53" height="3.22" transform="translate(1319.01 786.24) rotate(-180)"/><polygon class="cls-13" points="654.41 394.13 664.58 394.13 664.6 392.11 654.43 392.11 654.41 394.13"/><circle class="cls-13" cx="659.51" cy="374.28" r="1.68"/><circle class="cls-2" cx="659.51" cy="375.24" r="1.44"/><circle class="cls-12" cx="659.51" cy="373.86" r=".6"/></g><polygon class="cls-9" points="569.94 261.57 509.62 261.57 509.31 261.57 509.31 264.39 553.56 264.39 553.56 264.39 743.53 264.39 743.53 261.57 569.94 261.57"/><polyline class="cls-30" points="727.81 231.73 727.81 230.04 512.87 230.04 514.76 230.04 511.81 230.04 511.81 231.73"/><polyline class="cls-30" points="569.21 259.78 509.1 259.78 509.1 261.77 512.75 261.77 552.67 261.77 744.68 261.77 744.68 259.78"/></g></g><rect class="cls-13" x="249.27" y="419.73" width="519.72" height="6.96"/><path class="cls-29" d="M-239.83,613.02c0-110.62,172.48-200.3,385.24-200.3s385.24,89.68,385.24,200.3"/><circle class="cls-16" cx="119.21" cy="407.92" r="79.02"/><path class="cls-29" d="M-131.81,528.03c0-64.08,117.58-116.02,262.61-116.02s262.61,51.94,262.61,116.02"/><g><path class="cls-4" d="M75,295.42c0,18.92,2.08,60.86,2.44,67.29,.54,9.79,.75,42.49,.91,48.45,.23,8.57,1.1,17.12,1.76,25.68,.18,2.36-1.21,3.19-3.82,2.93-1.39-.14-2.75-.45-4.55-.76-.08-1.17-.21-2.41-.23-3.65-.26-18.21-.44-36.41-.78-54.62-.22-11.87,.55-33.95,.61-41.18,.06-7.42,.11-14.85,.38-22.27,.26-7.31,.77-14.61,1.17-21.92l2.12,.04Z"/><path class="cls-16" d="M64.46,368.35c-11.62-1.87-22.31-9.45-27.98-22.33-8.35-18.95-5.45-38.16,.82-57.11,5.1-15.39,11.76-30.05,20.74-43.6,7.07-10.67,13.4-11.77,23.67-4.26,2.02,1.48,4.24,2.77,5.98,4.53,13.15,13.25,23.13,28.37,27.12,46.9,4.54,21.1-1.52,47.21-16.16,63.3-9.49,10.43-22.33,14.47-34.19,12.56Z"/></g><g><path class="cls-34" d="M1.08,400.7c-10.28,5.25-16.69,7.8-19.39,10.49-2.7,2.69-9.1,10.52-5.44,16.16,3.66,5.65,4.88,10.06,15.17,9.6,10.3-.46,14.47-1.92,22.8-1.16,8.33,.76,15.7-2.97,17.42-4.77,1.72-1.8,6.89-10.12,.05-17.49-6.84-7.37-21.53-17.46-30.61-12.83Z"/><path class="cls-34" d="M17.24,395.51c7.09-3.95,14.89-4.16,25.02,2.17,10.13,6.33,12.27,10.54,12.88,13.34,.61,2.8,5.21,4.57,3.97,10.16-1.24,5.6-13.17,11.52-20.9,12.2-7.73,.68-9.35-.03-18.53-1.45-9.18-1.43-16.55-3.55-19.92-10.56s9.96-21.68,17.47-25.86Z"/><path class="cls-34" d="M16.87,404.63c-15.97,5.23-25.92,7.77-30.12,10.46-4.2,2.69-14.12,10.5-8.42,16.16,5.7,5.65,7.59,10.07,23.59,9.62,16-.45,22.48-1.9,35.43-1.13,12.95,.77,24.39-2.95,27.06-4.74,2.67-1.79,10.69-10.11,.05-17.49-10.65-7.38-33.47-17.5-47.58-12.88Z"/><g><path class="cls-34" d="M64.21,427.26c4.08-2.01,8.57-2.13,14.41,1.06,5.84,3.19,7.08,5.32,7.44,6.73,.35,1.42,3.01,2.3,2.3,5.14-.71,2.83-7.56,5.85-12.01,6.2-4.45,.35-5.38,0-10.67-.71-5.29-.71-9.54-1.77-11.48-5.32-1.95-3.54,5.7-10.99,10.02-13.11Z"/><path class="cls-34" d="M80.71,430.79c3.23-1.59,6.79-1.69,11.42,.84,4.63,2.53,5.61,4.21,5.89,5.34,.28,1.12,2.39,1.83,1.82,4.07-.56,2.25-5.99,4.63-9.52,4.92-3.53,.28-4.27,0-8.46-.56-4.19-.56-7.56-1.4-9.1-4.21s4.52-8.71,7.94-10.39Z"/><path class="cls-34" d="M70.07,420.23c4.08-2.01,8.57-2.13,14.41,1.06,5.84,3.19,7.08,5.32,7.44,6.73,.35,1.42,3.01,2.3,2.3,5.14-.71,2.83-1.23,7.06-5.68,7.41-4.45,.35-11.72-1.21-17-1.92-5.29-.71-9.54-1.77-11.48-5.32s5.7-10.99,10.02-13.11Z"/></g></g><g><path class="cls-4" d="M15.37,306.48c0,19.5,2.15,62.75,2.52,69.38,.56,10.1,.77,43.81,.93,49.96,.23,8.83,1.14,17.66,1.82,26.48,.19,2.43-1.25,3.29-3.94,3.02-1.43-.14-2.84-.47-4.69-.78-.08-1.21-.22-2.49-.24-3.77-.27-18.77-.45-37.54-.8-56.31-.23-12.24,.57-35,.63-42.46,.06-7.65,.12-15.31,.39-22.96,.26-7.54,.79-15.06,1.21-22.6l2.18,.04Z"/><path class="cls-16" d="M34.23,279.4c-1.51,11.17-6.96,23.99,1.67,31.15,8.64,7.17,10.5,16.12,7.12,25.34-3.47,9.46-1.4,16.27,7.88,22.1,11.16,7,14.82,17.1,12.54,28.48-2,10-9.75,16.63-20.34,20.25-6.95,2.37-14.42,3.77-21.79,5-3.51,.59-12.7,.6-17.49-.73-7.11-1.98-14.45-4.48-20.4-8.28-21.36-13.61-18.61-31.16-6.26-46.91,2.47-3.15,5.27-6.11,8.08-9.04,2.68-2.79,2.31-5.33-.32-7.89-6.87-6.7-6.48-10.41-.74-18.64,2.57-3.68,5.64-7.21,9.05-10.33,6.38-5.84,6.34-11.9,2.15-18.55-4.95-7.87-4.01-15.64,1.02-23.17,5.22-7.82,13.53-10.97,23.32-9,14.3,2.88,15.74,10.99,14.49,20.22Z"/></g><g><path class="cls-4" d="M176.73,352.43c9.13,4.06,10.97,12.38,15.79,19.56v-65.3c.84,0,1.67,0,2.51,0v54.82c.53,.03,1.06,.05,1.59,.08,4.85-4.59,9.71-9.19,14.56-13.78,.57,.42,1.14,.83,1.71,1.25-1.94,2.31-3.57,4.9-5.88,6.87-6.52,5.56-10.15,11.85-9.49,20.17,.57,7.25,.08,14.56,.13,21.85,0,1.31-1.21,12.6,.5,23.89,1.16,7.67,1.36,15.45,1.93,23.18,.13,1.81,.02,3.64,.02,5.37-7.01,.88-7.62,.35-7.76-5.15-.47-19.36-.98-38.72-1.55-58.08-.38-12.9-5.27-24.38-14.06-34.73Z"/><path class="cls-29" d="M174.01,289.95c12.69-9.96,26.65-10.55,44.83,5.27,18.18,15.82,22.03,26.37,23.13,33.4,1.1,7.03,9.36,11.43,7.16,25.49-2.2,14.06-23.53,29-37.37,30.76-13.85,1.76-16.75,0-33.2-3.52-16.45-3.52-29.67-8.79-35.73-26.37-6.06-17.58,17.74-54.49,31.18-65.04Z"/></g><g><path class="cls-16" d="M727.72,390.23c-8.74,5.24-14.18,7.79-16.48,10.48-2.3,2.69-7.73,10.5-4.62,16.15,3.11,5.64,4.14,10.05,12.89,9.59,8.75-.46,12.3-1.92,19.38-1.16,7.08,.76,13.34-2.97,14.8-4.77,1.46-1.79,5.86-10.11,.04-17.47-5.82-7.36-18.29-17.44-26.01-12.82Z"/><path class="cls-16" d="M741.46,385.05c6.03-3.94,12.65-4.16,21.26,2.17,8.61,6.32,10.43,10.53,10.94,13.32,.52,2.8,4.43,4.56,3.37,10.15-1.06,5.59-11.19,11.5-17.76,12.18-6.57,.68-7.95-.03-15.75-1.45-7.8-1.42-14.07-3.54-16.92-10.55-2.86-7,8.47-21.66,14.85-25.83Z"/><path class="cls-16" d="M741.15,394.16c-13.57,5.22-22.03,7.77-25.6,10.45-3.57,2.68-12,10.49-7.16,16.14,4.84,5.65,6.45,10.06,20.05,9.61,13.6-.45,19.1-1.9,30.11-1.13,11,.77,20.72-2.95,22.99-4.74,2.27-1.79,9.09-10.1,.04-17.47-9.05-7.37-28.45-17.48-40.43-12.86Z"/><g><path class="cls-16" d="M781.38,416.77c3.47-2.01,7.28-2.12,12.25,1.06,4.96,3.19,6.02,5.31,6.32,6.73,.3,1.42,2.56,2.3,1.96,5.13-.6,2.83-6.43,5.84-10.21,6.19-3.78,.35-4.57,0-9.07-.71-4.49-.71-8.1-1.77-9.76-5.31-1.65-3.54,4.85-10.97,8.52-13.1Z"/><path class="cls-16" d="M795.4,420.29c2.75-1.59,5.77-1.68,9.71,.84,3.94,2.53,4.77,4.21,5.01,5.33,.24,1.12,2.03,1.82,1.55,4.07-.48,2.24-5.09,4.63-8.09,4.91-3,.28-3.63,0-7.19-.56-3.56-.56-6.42-1.4-7.74-4.21-1.31-2.81,3.84-8.7,6.75-10.38Z"/><path class="cls-16" d="M786.36,409.74c3.47-2.01,7.28-2.12,12.25,1.06,4.96,3.19,6.02,5.31,6.32,6.73,.3,1.42,2.56,2.3,1.96,5.13-.6,2.83-1.05,7.05-4.83,7.4-3.78,.35-9.96-1.21-14.45-1.92-4.49-.71-8.1-1.77-9.76-5.31-1.65-3.54,4.85-10.97,8.52-13.1Z"/></g></g><path class="cls-9" d="M29.36,208.48c-5.89-1.19-11.31-5.99-14.19-14.16-4.23-12.01-2.76-24.19,.42-36.21,2.58-9.76,5.97-19.05,10.52-27.64,3.58-6.76,6.8-7.46,12-2.7,1.02,.94,2.15,1.76,3.03,2.87,6.67,8.4,11.73,17.99,13.75,29.73,2.3,13.38-.77,29.93-8.19,40.13-4.81,6.61-11.32,9.18-17.34,7.97Z"/><g><path class="cls-16" d="M-21.53,430.51c5.49-2.7,11.52-2.86,19.38,1.43,7.86,4.29,9.52,7.15,10,9.06,.48,1.91,4.05,3.1,3.09,6.91-.95,3.81-10.17,7.86-16.16,8.34-5.99,.48-7.24,0-14.35-.95-7.11-.95-12.82-2.38-15.44-7.15s7.67-14.77,13.48-17.63Z"/><path class="cls-16" d="M.65,435.26c4.35-2.14,9.13-2.27,15.36,1.13,6.23,3.4,7.55,5.67,7.93,7.18,.38,1.51,3.21,2.46,2.45,5.48-.75,3.02-8.06,6.23-12.81,6.61-4.74,.38-5.74,0-11.37-.76-5.64-.76-10.17-1.89-12.24-5.67s6.08-11.71,10.68-13.98Z"/><path class="cls-16" d="M-13.65,421.05c5.49-2.7,11.52-2.86,19.38,1.43,7.86,4.29,9.52,7.15,10,9.06,.48,1.91,4.05,3.1,3.09,6.91-.95,3.81-10.17,7.86-16.16,8.34-5.99,.48-7.24,0-14.35-.95-7.11-.95-12.82-2.38-15.44-7.15-2.62-4.77,7.67-14.77,13.48-17.63Z"/></g><g><path class="cls-4" d="M66.67,201.9c3.74,13.62,7.89,27.14,11.12,40.87,4.6,19.52,8.52,39.2,11.73,54.13,6.1-25.56,13.33-55.84,20.56-86.12,1.03,.06,2.06,.12,3.1,.18-.01,5.1,1.32,10.65-.25,15.22-14.48,42.2-17.12,85.43-12.36,129.4,.27,2.46,1.14,4.86,2.07,8.67,6.66-7.33,12.38-13.64,18.1-19.94,.89,.72,1.78,1.44,2.66,2.16-4.49,6.55-8.44,13.56-13.61,19.53-6.71,7.76-7.51,16.52-6.77,25.95,1.2,15.2,2.27,30.42,3.56,45.61,1.2,14.08,.83,14.5-14.32,12.27-1.25-16.92-2.51-34-3.78-51.08-.25-3.31-1.05-6.66-.76-9.92,3.12-35.53-19.19-57.6-42.05-79.25-5.14-4.87-11.34-8.64-16.16-13.96,29.38,6.68,41.72,33.24,59.69,53.65-4.35-29.18-8.04-57.63-13.02-85.85-2.51-14.23-7.63-27.97-11.02-42.07-1.52-6.33-1.7-12.98-2.48-19.48,1.33,0,2.66,0,3.99,.01Z"/><path class="cls-34" d="M121.59,286.22c11.48-6.84,24.1-7.21,40.49,3.75,16.39,10.95,19.85,18.23,20.83,23.09,.98,4.85,8.44,7.9,6.42,17.59-2.02,9.69-21.31,19.94-33.82,21.12-12.51,1.18-15.13-.04-29.98-2.51-14.85-2.47-26.78-6.13-32.22-18.27-5.44-12.14,16.13-37.53,28.28-44.77Z"/><path class="cls-16" d="M.07,250.96c13.19-6.45,27.7-6.79,46.54,3.56,18.85,10.35,22.83,17.22,23.96,21.8,1.13,4.58,9.7,7.46,7.39,16.61-2.31,9.14-24.48,18.81-38.87,19.91-14.38,1.1-17.39-.05-34.47-2.38-17.07-2.33-30.79-5.8-37.05-17.26-6.26-11.46,18.52-35.41,32.49-42.23Z"/><path class="cls-34" d="M62.96,162.17c-27,13.77-43.83,20.48-50.92,27.54-7.1,7.06-23.89,27.61-14.28,42.44,9.62,14.83,12.8,26.43,39.84,25.21,27.04-1.21,37.99-5.05,59.87-3.06,21.88,1.99,41.22-7.81,45.73-12.53,4.52-4.72,18.09-26.56,.12-45.92-17.97-19.36-56.52-45.85-80.37-33.69Z"/><path class="cls-34" d="M114.45,169.11c14.47-11.3,30.36-11.92,51,6.14,20.63,18.06,24.99,30.07,26.22,38.08,1.23,8.01,10.62,13.03,8.07,29.03-2.55,15.99-26.86,32.93-42.63,34.89-15.76,1.96-19.06-.05-37.77-4.1-18.71-4.05-33.73-10.09-40.57-30.12-6.84-20.02,20.35-61.96,35.68-73.92Z"/></g><g><g><rect class="cls-12" x="166.34" y="416.97" width="29.49" height="5.02" rx="1.26" ry="1.26" transform="translate(601.29 240.1) rotate(90.23)"/><rect class="cls-12" x="101.97" y="416.7" width="29.49" height="5.02" rx="1.26" ry="1.26" transform="translate(536.4 304.2) rotate(90.23)"/></g><rect class="cls-12" x="172.56" y="443.76" width="23.38" height="6.88" rx="1.18" ry="1.18" transform="translate(632.2 264.78) rotate(90.23)"/><rect class="cls-12" x="101.64" y="443.47" width="23.38" height="6.88" rx="1.18" ry="1.18" transform="translate(560.7 335.41) rotate(90.23)"/><rect class="cls-12" x="106.88" y="422.39" width="84.01" height="5.02" rx="1.11" ry="1.11" transform="translate(1.73 -.6) rotate(.23)"/><rect class="cls-12" x="102.1" y="432.02" width="93.48" height="6.98" rx="1.11" ry="1.11" transform="translate(1.77 -.6) rotate(.23)"/><rect class="cls-12" x="106.91" y="414.76" width="84.01" height="5.02" rx="1.11" ry="1.11" transform="translate(1.7 -.6) rotate(.23)"/><rect class="cls-12" x="106.94" y="407.14" width="84.01" height="5.02" rx="1.11" ry="1.11" transform="translate(1.67 -.6) rotate(.23)"/></g><path class="cls-9" d="M849.04,104.14c-.1-5.25-4.38-9.48-9.65-9.48-1.78,0-3.44,.49-4.87,1.33-3.25-8.83-11.74-15.13-21.71-15.13-1.99,0-3.93,.25-5.77,.73-5.56-9.95-16.2-16.69-28.41-16.69-15.36,0-28.23,10.66-31.64,24.98-2.16-.92-4.53-1.42-7.02-1.42-6.78,0-12.68,3.76-15.73,9.3-1.7-1.49-3.92-2.4-6.36-2.4-5.04,0-9.18,3.86-9.62,8.79h140.77Z"/><path class="cls-21" d="M394,104.54c-.12-6.63-5.53-11.98-12.19-11.98-2.25,0-4.35,.62-6.15,1.68-4.11-11.16-14.83-19.11-27.42-19.11-2.52,0-4.96,.32-7.29,.92-7.02-12.57-20.46-21.08-35.88-21.08-19.4,0-35.66,13.46-39.96,31.55-2.72-1.16-5.72-1.8-8.86-1.8-8.56,0-16.01,4.75-19.87,11.75-2.15-1.88-4.95-3.03-8.03-3.03-6.37,0-11.59,4.88-12.15,11.1h177.8Z"/><path class="cls-21" d="M888.74,205.3c-.05-2.72-2.27-4.91-5-4.91-.92,0-1.78,.25-2.52,.69-1.68-4.58-6.08-7.84-11.25-7.84-1.03,0-2.03,.13-2.99,.38-2.88-5.16-8.39-8.64-14.72-8.64-7.96,0-14.63,5.52-16.39,12.94-1.12-.47-2.34-.74-3.63-.74-3.51,0-6.57,1.95-8.15,4.82-.88-.77-2.03-1.24-3.29-1.24-2.61,0-4.75,2-4.98,4.55h72.93Z"/><g><path class="cls-4" d="M45.93,307.48c0,19.5,2.15,62.75,2.52,69.38,.56,10.1,.77,43.81,.93,49.96,.23,8.83,1.14,17.66,1.82,26.48,.19,2.43-1.25,3.29-3.94,3.02-1.43-.14-2.84-.47-4.69-.78-.08-1.21-.22-2.49-.24-3.77-.27-18.77-.45-37.54-.8-56.31-.23-12.24,.57-35,.63-42.46,.06-7.65,.12-15.31,.39-22.96,.26-7.54,.79-15.06,1.21-22.6l2.18,.04Z"/><path class="cls-29" d="M60.4,243.21c-1.33,9.85-6.14,21.15,1.47,27.46,7.62,6.32,9.26,14.22,6.28,22.34-3.06,8.34-1.24,14.35,6.95,19.49,9.84,6.18,13.07,15.08,11.06,25.11-1.76,8.81-8.6,14.67-17.93,17.86-6.13,2.09-12.71,3.32-19.21,4.41-3.09,.52-11.2,.53-15.42-.64-6.27-1.74-12.74-3.95-17.99-7.3-18.83-12-16.41-27.48-5.52-41.36,2.18-2.77,4.65-5.39,7.13-7.97,2.36-2.46,2.03-4.7-.28-6.95-6.06-5.91-5.71-9.18-.65-16.44,2.27-3.25,4.97-6.35,7.98-9.11,5.62-5.15,5.59-10.5,1.9-16.36-4.37-6.94-3.53-13.79,.9-20.43,4.61-6.9,11.93-9.67,20.56-7.94,12.61,2.54,13.88,9.69,12.78,17.83Z"/></g><g><path class="cls-4" d="M332.32,138.46s10.74,1.99,12.1,7.4c.03,.12,.29,.23,.34,.01,1.17-4.78,11.15-8.06,11.15-8.06,0,0-8.36,4.82-11.09,10.64-.05,.12-.46,.11-.53,0-3.81-6.43-11.97-9.99-11.97-9.99Z"/><path class="cls-4" d="M349.77,170.29s16.64-11.89,18.94-2.75c.05,.2,.49,.39,.58,.02,1.97-8.09,16.95,1.97,16.95,1.97,0,0-14.04-7.35-16.85,2.39-.06,.21-.78,.19-.89,0-6.43-10.86-18.72-1.63-18.72-1.63Z"/></g><path class="cls-9" d="M522.45,181.83c-.06-3.17-2.64-5.73-5.83-5.73-1.07,0-2.08,.29-2.94,.8-1.96-5.33-7.09-9.14-13.11-9.14-1.2,0-2.37,.15-3.48,.44-3.36-6.01-9.78-10.08-17.15-10.08-9.28,0-17.05,6.43-19.1,15.08-1.3-.55-2.73-.86-4.24-.86-4.09,0-7.65,2.27-9.5,5.62-1.03-.9-2.37-1.45-3.84-1.45-3.05,0-5.54,2.33-5.81,5.31h85Z"/><g><rect class="cls-17" x="220.02" y="306.76" width="4.01" height="1.87" rx=".48" ry=".48"/><path class="cls-17" d="M223.07,303.05c0,.16-.12,.29-.26,.29h-1.57c-.15,0-.26-.13-.26-.29,0-.04,0-.09,.02-.12,.04-.1,.13-.17,.24-.17h1.57c.11,0,.19,.07,.24,.17,.02,.03,.02,.08,.02,.12Z"/><path class="cls-17" d="M223.54,305.53c0,.94-.68,1.69-1.52,1.69s-1.52-.76-1.52-1.69c0-.31,.07-.62,.22-.88s.35-.44,.48-.7c.12-.24,.18-.5,.19-.77,0-.12,0-.25-.03-.37,0-.05-.08-.41-.12-.41h1.55s-.11,.35-.12,.4c-.02,.13-.03,.26-.03,.4,.01,.29,.09,.57,.22,.82,.13,.24,.32,.42,.45,.65,.14,.25,.21,.56,.21,.86Z"/><path class="cls-17" d="M222.62,302.39c0,.05,0,.09,0,.13-.06,.31-.3,.53-.59,.53s-.53-.22-.59-.53c0-.04,0-.08,0-.13,0-.04,0-.09,0-.13,.03-.56,.22-1.12,.59-1.57,.37,.45,.56,1.01,.59,1.57,0,.04,0,.09,0,.13Z"/><rect class="cls-17" x="220.02" y="306.76" width="4.01" height="1.87" rx=".48" ry=".48"/><path class="cls-17" d="M223.08,303.05c0,.16-.12,.29-.26,.29h-1.57c-.15,0-.26-.13-.26-.29,0-.04,0-.09,.02-.12,.04-.1,.13-.17,.24-.17h1.57c.11,0,.19,.07,.24,.17,.02,.03,.02,.08,.02,.12Z"/><path class="cls-17" d="M223.54,305.53c0,.94-.68,1.69-1.52,1.69s-1.52-.76-1.52-1.69c0-.31,.07-.62,.22-.88s.35-.44,.48-.7c.12-.24,.18-.5,.19-.77,0-.12,0-.25-.03-.37,0-.05-.08-.41-.12-.41h1.55s-.11,.35-.12,.4c-.02,.13-.03,.26-.03,.4,.01,.29,.09,.57,.22,.82,.13,.24,.32,.42,.45,.65,.14,.25,.21,.56,.21,.86Z"/><path class="cls-17" d="M222.62,302.39c0,.05,0,.09,0,.13-.06,.31-.3,.53-.59,.53s-.53-.22-.59-.53c0-.04,0-.08,0-.13,0-.04,0-.09,0-.13,.03-.56,.22-1.12,.59-1.57,.37,.45,.56,1.01,.59,1.57,0,.04,0,.09,0,.13Z"/><polygon class="cls-7" points="214.78 316.72 229.28 316.72 226.79 332.89 217.27 332.89 214.78 316.72"/><g><path class="cls-30" d="M231.45,454.77c-.39-.94-1.18-1.56-2.18-1.56h-.79v-14.44c0-2.16-.85-4.09-2.2-5.41h.59c.9,0,1.61-.79,1.61-1.8,0-.25-.04-.54-.15-.75-.26-.63-.79-1.04-1.46-1.04h-.04c1.02-1.28,1.65-2.96,1.65-4.8,0-1.27-.29-2.59-.91-3.67-.57-.99-1.38-1.78-1.94-2.79-.58-1.04-.91-2.25-.96-3.48-.02-.57,.02-1.14,.12-1.69,.04-.19,.34-1.69,.52-1.69h.05c.62,0,1.11-.55,1.11-1.24,0-.17-.03-.38-.1-.52-.18-.43-.54-.72-1.01-.72h-1.37v-69.1h.54c.46,0,.84-.42,.84-.94,0-.46-.31-.83-.7-.9,0,0,0,0,.01,0,1.04-.8,1.78-2.02,2-3.45h.41c.46,0,.84-.42,.84-.94s-.38-.94-.84-.94h-10.16c-.46,0-.84,.41-.84,.94s.38,.94,.84,.94h.4c.22,1.43,.96,2.66,2,3.45,0,0,.01,0,.02,0-.39,.08-.7,.44-.7,.9,0,.52,.38,.94,.84,.94h.5v69.1h-1.33c-.47,0-.83,.29-1.01,.72-.08,.14-.1,.35-.1,.52,0,.69,.49,1.24,1.11,1.24h.05c.18,0,.47,1.54,.51,1.73,.09,.52,.13,1.05,.11,1.58-.03,1.15-.3,2.29-.8,3.29-.55,1.1-1.44,1.92-2.06,2.97-.64,1.1-.94,2.44-.94,3.74,0,1.85,.63,3.52,1.65,4.8h-.01c-.67,0-1.2,.42-1.46,1.04-.11,.21-.15,.5-.15,.75,0,1,.71,1.8,1.61,1.8h.59c-1.35,1.32-2.2,3.25-2.2,5.41v14.44h-.79c-1.01,0-1.79,.62-2.18,1.56-.17,.31-.22,.75-.22,1.12,0,1.5,1.06,2.68,2.41,2.68h14.49c1.34,0,2.41-1.19,2.41-2.68,0-.37-.06-.81-.22-1.12Z"/><path class="cls-30" d="M213.82,317.65h16.42c.46,0,.84-.42,.84-.94s-.38-.94-.84-.94h-.27l-.64-1.74c-1.06-2.9-3.24-4.92-5.76-5.52,.27-.15,.47-.46,.47-.83,0-.52-.38-.94-.84-.94h-.12c.29-.31,.47-.74,.47-1.22,0-.3-.07-.61-.21-.86-.13-.23-.32-.42-.45-.65-.11-.2-.17-.44-.2-.67h.14c.15,0,.26-.13,.26-.29,0-.04,0-.09-.02-.12-.04-.1-.13-.17-.24-.17h-.13c.02-.1,.08-.35,.11-.35h-.18s0-.01,0-.02c0-.04,0-.09,0-.13-.03-.56-.22-1.12-.59-1.57,0,0,0,0,0,0,0,0,0,0,0,0-.37,.45-.56,1.01-.59,1.57,0,.04,0,.09,0,.13,0,0,0,.01,0,.02h-.18s.09,.24,.11,.35h-.12c-.11,0-.19,.07-.24,.17-.02,.03-.02,.08-.02,.12,0,.16,.12,.29,.26,.29h.14c-.02,.21-.07,.42-.17,.61-.13,.26-.34,.45-.48,.7-.15,.26-.22,.57-.22,.88,0,.48,.18,.92,.47,1.22h-.12c-.46,0-.84,.42-.84,.94,0,.36,.19,.67,.46,.83-2.53,.6-4.71,2.62-5.77,5.52l-.64,1.74h-.26c-.46,0-.84,.42-.84,.94s.38,.94,.84,.94Z"/></g></g><path class="cls-29" d="M910.5,576.22c0-126.08,243.68-228.29,544.28-228.29s544.28,102.21,544.28,228.29"/><g><path class="cls-4" d="M749.32,322.85c0,14.95,1.65,48.09,1.93,53.16,.43,7.74,.59,33.57,.72,38.28,.18,6.77,.87,13.53,1.39,20.29,.14,1.86-.96,2.52-3.02,2.32-1.1-.11-2.17-.36-3.6-.6-.06-.93-.17-1.91-.18-2.89-.21-14.38-.35-28.77-.62-43.15-.18-9.38,.43-26.82,.48-32.54,.05-5.87,.09-11.73,.3-17.59,.2-5.77,.61-11.54,.92-17.32l1.67,.03Z"/><path class="cls-29" d="M760.41,273.6c-1.02,7.55-4.7,16.21,1.13,21.05,5.84,4.84,7.1,10.89,4.81,17.12-2.34,6.39-.95,10.99,5.33,14.93,7.54,4.73,10.01,11.55,8.48,19.24-1.35,6.75-6.59,11.24-13.74,13.68-4.7,1.6-9.74,2.54-14.72,3.38-2.37,.4-8.58,.41-11.82-.49-4.81-1.34-9.76-3.03-13.78-5.59-14.43-9.19-12.58-21.06-4.23-31.7,1.67-2.13,3.56-4.13,5.46-6.11,1.81-1.89,1.56-3.6-.22-5.33-4.65-4.53-4.38-7.03-.5-12.6,1.74-2.49,3.81-4.87,6.12-6.98,4.31-3.94,4.28-8.04,1.45-12.54-3.35-5.32-2.71-10.57,.69-15.66,3.53-5.29,9.15-7.41,15.76-6.08,9.66,1.94,10.64,7.42,9.79,13.66Z"/></g><g><path class="cls-4" d="M756.33,371.39c6.26,2.79,7.53,8.5,10.84,13.42v-44.82c.57,0,1.15,0,1.72,0v37.63c.36,.02,.73,.03,1.09,.05,3.33-3.15,6.66-6.3,9.99-9.46,.39,.29,.78,.57,1.17,.86-1.33,1.58-2.45,3.36-4.04,4.71-4.47,3.81-6.97,8.13-6.51,13.84,.39,4.98,.05,10,.09,15,0,.9-.83,8.65,.34,16.4,.8,5.26,.93,10.6,1.32,15.91,.09,1.25,.01,2.5,.01,3.68-4.81,.6-5.23,.24-5.32-3.54-.32-13.29-.67-26.58-1.06-39.86-.26-8.86-3.62-16.74-9.65-23.83Z"/><path class="cls-34" d="M754.46,328.51c8.71-6.84,18.3-7.24,30.77,3.62,12.48,10.86,15.12,18.1,15.88,22.92,.76,4.83,6.43,7.84,4.91,17.5-1.51,9.65-16.15,19.91-25.65,21.11-9.5,1.21-11.5,0-22.79-2.41-11.29-2.41-20.36-6.03-24.52-18.1-4.16-12.07,12.18-37.4,21.4-44.64Z"/></g><g><rect class="cls-30" x="893.17" y="234.46" width="78.03" height="262.54"/><polygon class="cls-9" points="942.56 233.13 942.56 233.13 889.28 233.13 889.28 236.22 928.17 236.22 928.17 236.22 1197 236.22 1197 233.13 942.56 233.13"/><polygon class="cls-30" points="941.04 231.18 941.04 231.18 888.21 231.18 888.21 233.35 926.5 233.35 926.5 233.36 1198.02 233.36 1198.02 231.18 941.04 231.18"/><rect class="cls-5" x="970.88" y="228.45" width="228.79" height="275.95"/><polygon class="cls-9" points="1008.57 228.31 1008.57 228.31 968.06 228.31 968.06 231.4 997.62 231.4 997.62 231.4 1202 231.4 1202 228.31 1008.57 228.31"/><polygon class="cls-28" points="1007.4 226.36 1007.4 226.35 967.25 226.35 967.25 228.53 996.35 228.53 996.35 228.53 1202.77 228.53 1202.77 226.36 1007.4 226.36"/><g><rect class="cls-12" x="998.83" y="256.66" width="73.59" height="51.91"/><g><rect class="cls-4" x="1002.53" y="260.2" width="20.31" height="44.83"/><rect class="cls-4" x="1025.47" y="260.2" width="20.31" height="44.83"/></g></g><g><rect class="cls-12" x="998.83" y="340.45" width="73.59" height="51.91"/><g><rect class="cls-4" x="1002.53" y="343.99" width="20.31" height="44.83"/><rect class="cls-4" x="1025.47" y="343.99" width="20.31" height="44.83"/></g></g><g><rect class="cls-12" x="998.83" y="424.24" width="73.59" height="51.91"/><g><rect class="cls-4" x="1002.53" y="427.78" width="20.31" height="44.83"/><rect class="cls-4" x="1025.47" y="427.78" width="20.31" height="44.83"/></g></g><g><g><rect class="cls-12" x="899.59" y="253.52" width="64.8" height="58.84"/><g><rect class="cls-4" x="903.76" y="257.34" width="26.41" height="55.7"/><rect class="cls-4" x="933.82" y="257.34" width="26.41" height="55.7"/></g></g><g><rect class="cls-12" x="892.28" y="311.81" width="78.68" height="5.72"/><rect class="cls-12" x="892.28" y="287.87" width="78.68" height="4"/><rect class="cls-12" x="892.28" y="299.66" width="78.68" height="4"/></g></g><g><g><rect class="cls-12" x="899.59" y="337.69" width="64.8" height="58.84"/><g><rect class="cls-4" x="903.76" y="341.51" width="26.41" height="55.7"/><rect class="cls-4" x="933.82" y="341.51" width="26.41" height="55.7"/></g></g><g><rect class="cls-12" x="892.28" y="395.99" width="78.68" height="5.72"/><rect class="cls-12" x="892.28" y="372.05" width="78.68" height="4"/><rect class="cls-12" x="892.28" y="383.84" width="78.68" height="4"/></g></g><g><g><rect class="cls-12" x="899.59" y="421.87" width="64.8" height="58.84"/><g><rect class="cls-4" x="903.76" y="425.69" width="26.41" height="55.7"/><rect class="cls-4" x="933.82" y="425.69" width="26.41" height="55.7"/></g></g><g><rect class="cls-12" x="892.28" y="480.16" width="78.68" height="5.72"/><rect class="cls-12" x="892.28" y="456.22" width="78.68" height="4"/><rect class="cls-12" x="892.28" y="468.01" width="78.68" height="4"/></g></g></g><rect class="cls-34" x="873.85" y="494.73" width="436.8" height="61.46"/><g><path class="cls-29" d="M715.8,425.63c5.26-1.96,11.05-2.08,18.59,1.04,7.54,3.12,9.14,5.2,9.59,6.58,.46,1.39,3.88,2.25,2.97,5.02-.91,2.77-9.76,5.72-15.5,6.06-5.74,.35-6.95,0-13.77-.69-6.82-.69-12.3-1.73-14.82-5.2-2.51-3.46,7.36-10.74,12.93-12.82Z"/><path class="cls-29" d="M737.08,429.08c4.17-1.56,8.76-1.65,14.74,.82,5.97,2.47,7.24,4.12,7.6,5.22,.36,1.1,3.08,1.78,2.35,3.98-.72,2.2-7.73,4.53-12.28,4.8-4.55,.27-5.51,0-10.91-.55-5.41-.55-9.75-1.37-11.74-4.12s5.83-8.51,10.25-10.16Z"/><path class="cls-29" d="M723.36,418.75c5.26-1.96,11.05-2.08,18.59,1.04,7.54,3.12,9.14,5.2,9.59,6.58,.46,1.39,3.88,2.25,2.97,5.02-.91,2.77-9.76,5.72-15.5,6.06-5.74,.35-6.95,0-13.77-.69-6.82-.69-12.3-1.73-14.82-5.2s7.36-10.74,12.93-12.82Z"/></g><g id="Gardening"><g><g><path class="cls-3" d="M965.63,495.74c.25,1.36-3.79-12.23-7.02-14.11"/><path class="cls-3" d="M964.54,495.74c0,.07-2.61-6.63-7.02-8.9"/><path class="cls-3" d="M965.47,495.55c.28,1.51-1.2-15.75-3.2-17.49"/><path class="cls-3" d="M965.63,495.74c.02-.67,3.17-9.17,7.27-10.42"/><path class="cls-3" d="M965.63,495.74c-.28,1.51,.35-12.37,2.35-14.11"/><path class="cls-24" d="M959.15,477.17c1.2,2.02,3.89,2.63,4.71,2.15s1.56-3.15,.36-5.17-4.71-2.15-4.71-2.15c0,0-1.56,3.15-.36,5.17Z"/><path class="cls-24" d="M972.25,482.62c-1.89,1.4-2.23,4.14-1.67,4.9s3.29,1.24,5.18-.15,1.67-4.9,1.67-4.9c0,0-3.29-1.24-5.18,.15Z"/><path class="cls-24" d="M967.93,477.25c-1.58,1.74-1.37,4.5-.67,5.14s3.47,.57,5.04-1.17c1.58-1.74,.67-5.14,.67-5.14,0,0-3.47-.57-5.04,1.17Z"/><path class="cls-24" d="M954.79,482.66c1.91,1.37,4.62,.86,5.18,.09s.18-3.51-1.73-4.88c-1.91-1.37-5.18-.09-5.18-.09,0,0-.18,3.51,1.73,4.88Z"/><path class="cls-24" d="M954.33,490.07c2.32,.35,4.5-1.35,4.64-2.29,.14-.94-1.45-3.2-3.77-3.55-2.32-.35-4.64,2.29-4.64,2.29,0,0,1.45,3.2,3.77,3.55Z"/></g><g><path class="cls-27" d="M971.32,489.91s.03-.1,.04-.15c.04,.03,.08,.07,.13,.1,.88,.64,2.12,.45,2.76-.44,.64-.88,.45-2.12-.44-2.76-.05-.04-.11-.07-.16-.1,.05-.03,.11-.07,.16-.1,.88-.64,1.08-1.88,.44-2.76-.64-.88-1.88-1.08-2.76-.44-.05,.04-.1,.08-.15,.12-.01-.06-.03-.12-.05-.18-.34-1.04-1.45-1.61-2.49-1.27-1.04,.34-1.61,1.45-1.27,2.49,.02,.06,.04,.11,.06,.17-.05,0-.1,0-.16,0-1.09,0-1.97,.88-1.97,1.97s.88,1.97,1.97,1.97c.06,0,.13,0,.19,0-.02,.05-.04,.11-.06,.16-.34,1.04,.23,2.15,1.27,2.49,1.04,.34,2.15-.23,2.49-1.27Z"/><path class="cls-14" d="M972.07,487.14c.32-.99-.22-2.06-1.22-2.39-.99-.32-2.06,.22-2.39,1.22-.32,.99,.22,2.06,1.22,2.39,.99,.32,2.06-.22,2.39-1.22Z"/></g><g><path class="cls-5" d="M954.32,485.82c.05,.01,.1,.02,.15,.03-.03,.04-.06,.09-.09,.13-.56,.94-.25,2.15,.68,2.71,.94,.56,2.15,.25,2.71-.68,.03-.06,.06-.11,.09-.17,.04,.05,.08,.1,.12,.15,.72,.82,1.97,.91,2.79,.19,.82-.72,.91-1.97,.19-2.79-.04-.05-.09-.1-.14-.14,.06-.02,.12-.04,.17-.06,1-.43,1.47-1.59,1.04-2.59-.43-1-1.59-1.47-2.59-1.04-.05,.02-.11,.05-.16,.08,0-.05,0-.1,0-.16-.1-1.09-1.06-1.89-2.14-1.79s-1.89,1.06-1.79,2.14c0,.06,.02,.13,.03,.19-.06-.02-.11-.03-.17-.05-1.06-.24-2.12,.42-2.36,1.49-.24,1.06,.42,2.12,1.49,2.36Z"/><path class="cls-14" d="M957.14,486.31c1.02,.23,2.03-.4,2.27-1.42,.23-1.02-.4-2.03-1.42-2.27-1.02-.23-2.03,.4-2.27,1.42-.23,1.02,.4,2.03,1.42,2.27Z"/></g><path class="cls-6" d="M968.85,481.91c-.01-.05-.03-.1-.04-.15,.05,0,.11,.02,.16,.02,1.09,.08,2.04-.73,2.12-1.82,.08-1.09-.73-2.04-1.82-2.12-.06,0-.13,0-.19,0,.03-.06,.06-.11,.08-.17,.42-1.01-.06-2.16-1.07-2.58-1.01-.42-2.16,.06-2.58,1.07-.03,.06-.05,.12-.07,.19-.04-.04-.09-.09-.14-.13-.83-.71-2.08-.61-2.78,.22-.71,.83-.61,2.08,.22,2.78,.05,.04,.09,.07,.14,.11-.05,.02-.09,.05-.14,.08-.93,.57-1.22,1.79-.65,2.72,.57,.93,1.79,1.22,2.72,.65,.06-.03,.11-.07,.16-.11,0,.06,.02,.12,.03,.17,.26,1.06,1.32,1.71,2.38,1.46s1.71-1.32,1.46-2.38Z"/><path class="cls-14" d="M968.04,479.16c-.24-1.02-1.27-1.64-2.28-1.4-1.02,.24-1.64,1.27-1.4,2.28,.24,1.02,1.27,1.64,2.28,1.4,1.02-.24,1.64-1.27,1.4-2.28Z"/></g></g><rect class="cls-1" x="-26.27" y="-89.73" width="7540.63" height="629.55"/></svg>